<?xml version="1.0" encoding="utf-8"?>
<!-- Generator: Adobe Illustrator 16.0.0, SVG Export Plug-In . SVG Version: 6.00 Build 0)  -->
<!DOCTYPE svg PUBLIC "-//W3C//DTD SVG 1.1//EN" "http://www.w3.org/Graphics/SVG/1.1/DTD/svg11.dtd">
<svg version="1.1" id="Layer_1" xmlns="http://www.w3.org/2000/svg" xmlns:xlink="http://www.w3.org/1999/xlink" x="0px" y="0px"
	 width="335.3px" height="125px" viewBox="0 0 335.3 125" enable-background="new 0 0 335.3 125" xml:space="preserve">
<linearGradient id="SVGID_1_" gradientUnits="userSpaceOnUse" x1="105.2998" y1="171.0518" x2="27.2998" y2="171.0518" gradientTransform="matrix(1 0 0 -1 206 242)">
	<stop  offset="0" style="stop-color:#FA8A9C"/>
	<stop  offset="0.1649" style="stop-color:#E696AE"/>
	<stop  offset="0.7323" style="stop-color:#A5BEE8"/>
	<stop  offset="1" style="stop-color:#8CCDFF"/>
</linearGradient>
<path fill="none" stroke="url(#SVGID_1_)" stroke-width="2" stroke-miterlimit="10" d="M289.4,106.9c12.4-6.2,20.9-19.101,20.9-33.9
	c0-21-17-38-38-38s-38,17-38,38c0,14.9,8.6,27.8,21.199,34"/>
<g>
	<path stroke="#FFFFFF" stroke-miterlimit="10" d="M216.1,94l1.601,5l1.799-5h1.601v10h-1.2v-4l0.1-4.2l-1.799,5.4H217.5L215.8,96
		l0.1,4v4h-1.199V94H216.1z"/>
	<path stroke="#FFFFFF" stroke-miterlimit="10" d="M227.9,103.9c0-0.101-0.1-0.2-0.1-0.4c0-0.1-0.1-0.3-0.1-0.4
		c-0.101,0.101-0.301,0.2-0.4,0.4c-0.2,0.1-0.301,0.2-0.5,0.3c-0.2,0.101-0.4,0.2-0.6,0.2c-0.201,0-0.4,0.1-0.701,0.1
		c-0.399,0-0.699-0.1-1.1-0.199c-0.3-0.101-0.6-0.301-0.8-0.5c-0.2-0.2-0.399-0.4-0.5-0.7s-0.2-0.601-0.2-0.9
		c0-0.399,0.1-0.8,0.2-1.1c0.2-0.3,0.399-0.601,0.7-0.8c0.3-0.2,0.699-0.4,1.1-0.5c0.4-0.101,0.9-0.2,1.4-0.2h1.4V98.6
		c0-0.199,0-0.399-0.101-0.6s-0.2-0.3-0.3-0.5c-0.2-0.1-0.301-0.2-0.6-0.3C226.5,97.1,226.201,97.1,226,97.1
		c-0.299,0-0.5,0-0.699,0.101c-0.2,0.1-0.4,0.1-0.5,0.3s-0.2,0.2-0.301,0.4c-0.1,0.1-0.1,0.3-0.1,0.399h-1.3
		c0-0.3,0.101-0.5,0.2-0.8s0.3-0.5,0.6-0.7c0.301-0.2,0.6-0.399,0.9-0.5c0.4-0.1,0.8-0.2,1.199-0.2c0.4,0,0.801,0.101,1.201,0.2
		c0.399,0.101,0.699,0.3,0.899,0.5c0.3,0.2,0.5,0.5,0.601,0.8c0.1,0.301,0.199,0.7,0.199,1.101v3.399c0,0.2,0,0.5,0.1,0.801
		c0,0.3,0.101,0.5,0.201,0.699v0.101H227.9V103.9z M225.701,103c0.199,0,0.5,0,0.699-0.1c0.2-0.101,0.4-0.101,0.6-0.301
		c0.201-0.1,0.301-0.199,0.5-0.399c0.101-0.101,0.201-0.3,0.301-0.4v-1.5h-1.2c-0.7,0-1.3,0.101-1.7,0.3c-0.4,0.2-0.6,0.601-0.6,1
		c0,0.2,0,0.4,0.1,0.5c0.1,0.2,0.2,0.301,0.301,0.4c0.1,0.1,0.299,0.2,0.5,0.3C225.4,102.9,225.5,103,225.701,103z"/>
	<path stroke="#FFFFFF" stroke-miterlimit="10" d="M236.3,96.4c0.1,0,0.199,0,0.4,0c0.1,0,0.199,0,0.399,0c0.101,0,0.2,0,0.3,0.1
		c0.1,0,0.2,0,0.2,0.1l-0.2,1.2c-0.199-0.1-0.5-0.1-0.699-0.1c-0.201,0-0.5,0-0.701,0c-0.6,0-1.1,0.1-1.399,0.399
		C234.201,98.4,234,98.7,233.8,99.2v4.7H232.5v-7.4h1.201l0.1,1.2c0.3-0.4,0.699-0.7,1.1-1C235.3,96.5,235.8,96.4,236.3,96.4z"/>
	<path stroke="#FFFFFF" stroke-miterlimit="10" d="M244.701,96.4c0.1,0,0.199,0,0.399,0c0.101,0,0.2,0,0.399,0
		c0.101,0,0.201,0,0.301,0.1c0.1,0,0.199,0,0.199,0.1l-0.199,1.2c-0.2-0.1-0.5-0.1-0.7-0.1s-0.5,0-0.7,0c-0.6,0-1.1,0.1-1.4,0.399
		c-0.399,0.301-0.6,0.601-0.799,1.101v4.7H240.9v-7.4h1.2l0.101,1.2c0.299-0.4,0.699-0.7,1.1-1
		C243.701,96.5,244.201,96.4,244.701,96.4z"/>
	<path stroke="#FFFFFF" stroke-miterlimit="10" d="M248.5,96.5h3.801v6.3h2.4v1.101H248.5V102.8h2.5v-5.2h-2.5V96.5z M250.8,94.6
		c0-0.199,0.1-0.399,0.199-0.5C251.1,94,251.3,93.9,251.6,93.9S252,94,252.201,94.1c0.1,0.101,0.199,0.301,0.199,0.5
		c0,0.2-0.1,0.4-0.199,0.5c-0.101,0.101-0.301,0.2-0.601,0.2s-0.399-0.1-0.601-0.2C250.9,95,250.8,94.8,250.8,94.6z"/>
	<path stroke="#FFFFFF" stroke-miterlimit="10" d="M260,104.1c-0.5,0-1-0.1-1.399-0.3s-0.8-0.399-1.101-0.7
		c-0.299-0.3-0.6-0.699-0.699-1.1s-0.301-0.9-0.301-1.4v-0.3c0-0.6,0.101-1.1,0.301-1.6c0.199-0.5,0.4-0.9,0.8-1.2
		c0.3-0.3,0.7-0.6,1.101-0.7c0.399-0.2,0.799-0.3,1.199-0.3c0.5,0,1,0.1,1.4,0.3s0.699,0.4,1,0.8c0.3,0.301,0.5,0.7,0.6,1.2
		c0.1,0.4,0.2,0.9,0.2,1.4v0.6h-5.3c0,0.3,0.1,0.7,0.199,1c0.101,0.3,0.301,0.601,0.5,0.8c0.201,0.2,0.4,0.4,0.701,0.5
		c0.299,0.101,0.6,0.2,0.899,0.2c0.5,0,0.899-0.1,1.2-0.3c0.3-0.2,0.6-0.4,0.9-0.7L263,102.9c-0.1,0.199-0.299,0.399-0.5,0.5
		c-0.199,0.199-0.399,0.3-0.6,0.5c-0.199,0.199-0.5,0.199-0.8,0.3C260.701,104,260.3,104.1,260,104.1z M259.8,97.4
		c-0.301,0-0.5,0-0.7,0.1s-0.399,0.2-0.601,0.4C258.3,98.1,258.201,98.3,258,98.6c-0.1,0.301-0.199,0.601-0.299,0.9h4v-0.1
		c0-0.2-0.101-0.5-0.101-0.7c-0.101-0.2-0.2-0.5-0.399-0.601C261,98,260.9,97.8,260.6,97.6C260.4,97.5,260.1,97.4,259.8,97.4z"/>
	<path stroke="#FFFFFF" stroke-miterlimit="10" d="M270,102c0-0.2,0-0.3-0.1-0.4c-0.1-0.1-0.199-0.199-0.3-0.3
		c-0.101-0.1-0.3-0.2-0.601-0.3c-0.199-0.1-0.5-0.2-0.899-0.2c-0.399-0.1-0.8-0.2-1.2-0.3c-0.3-0.1-0.6-0.3-0.9-0.4
		c-0.199-0.199-0.399-0.399-0.6-0.6c-0.1-0.2-0.199-0.5-0.199-0.8s0.1-0.601,0.199-0.8c0.1-0.301,0.301-0.5,0.6-0.7
		c0.301-0.2,0.601-0.4,0.9-0.5c0.4-0.101,0.7-0.2,1.2-0.2s0.899,0.1,1.2,0.2c0.3,0.1,0.699,0.3,0.9,0.5c0.199,0.2,0.5,0.5,0.6,0.7
		C270.9,98.2,271,98.5,271,98.8h-1.299c0-0.2,0-0.3-0.101-0.5s-0.2-0.3-0.3-0.399c-0.1-0.101-0.301-0.2-0.5-0.301
		c-0.2-0.1-0.4-0.1-0.7-0.1s-0.5,0-0.7,0.1c-0.199,0.101-0.4,0.101-0.5,0.2c-0.1,0.101-0.199,0.2-0.3,0.3
		C266.5,98.2,266.5,98.4,266.5,98.5s0,0.3,0.101,0.4c0.101,0.1,0.101,0.199,0.3,0.3c0.1,0.1,0.301,0.2,0.5,0.2
		c0.2,0.1,0.5,0.1,0.9,0.199c0.5,0.101,0.9,0.2,1.199,0.301c0.4,0.1,0.701,0.3,0.9,0.5c0.2,0.199,0.4,0.399,0.6,0.6
		c0.101,0.2,0.201,0.5,0.201,0.8S271.1,102.4,271,102.7c-0.1,0.3-0.399,0.5-0.6,0.7c-0.199,0.199-0.6,0.3-1,0.399
		c-0.4,0.101-0.8,0.2-1.199,0.2c-0.5,0-0.9-0.1-1.301-0.2c-0.4-0.1-0.699-0.3-1-0.5c-0.3-0.2-0.5-0.5-0.6-0.8s-0.2-0.6-0.2-0.9h1.3
		c0,0.301,0.1,0.5,0.2,0.7s0.3,0.3,0.5,0.4c0.2,0.1,0.399,0.2,0.601,0.2c0.199,0,0.399,0.1,0.6,0.1c0.5,0,1-0.1,1.3-0.3
		S270,102.3,270,102z"/>
	<path stroke="#FFFFFF" stroke-miterlimit="10" d="M283,101.2l0.201,1.1l0.199-1.1l1.2-4.7h0.8l1.2,4.7l0.2,1.2l0.199-1.2l0.801-4.7
		h1.1l-1.6,7.4h-1l-1.2-4.5l-0.2-1.101l-0.199,1.101l-1.101,4.5h-1L281,96.5h1.101L283,101.2z"/>
	<path stroke="#FFFFFF" stroke-miterlimit="10" d="M290.5,96.5h3.801v6.3h2.4v1.101H290.5V102.8h2.5v-5.2h-2.5V96.5L290.5,96.5z
		 M292.8,94.6c0-0.199,0.1-0.399,0.199-0.5C293.1,94,293.3,93.9,293.6,93.9S294,94,294.201,94.1c0.1,0.101,0.199,0.301,0.199,0.5
		c0,0.2-0.1,0.4-0.199,0.5c-0.101,0.101-0.301,0.2-0.601,0.2s-0.399-0.1-0.601-0.2C292.9,95,292.8,94.8,292.8,94.6z"/>
	<path stroke="#FFFFFF" stroke-miterlimit="10" d="M301.701,94.7v1.8h2.799v1h-2.799v4c0,0.3,0,0.5,0.1,0.7s0.199,0.3,0.3,0.399
		c0.101,0.101,0.3,0.2,0.399,0.2c0.201,0,0.301,0.101,0.5,0.101c0.101,0,0.301,0,0.4,0s0.301,0,0.4-0.101c0.1,0,0.3,0,0.4-0.1
		c0.1,0,0.199,0,0.299-0.101l0.201,0.9c-0.101,0.1-0.201,0.1-0.4,0.2c-0.2,0-0.301,0.1-0.5,0.1c-0.2,0-0.4,0.101-0.6,0.101
		c-0.201,0-0.4,0-0.601,0c-0.3,0-0.601,0-0.899-0.101c-0.301-0.1-0.5-0.2-0.701-0.399c-0.199-0.2-0.399-0.5-0.5-0.801
		c-0.1-0.3-0.199-0.699-0.199-1.199v-4h-1.9v-1h1.9V94.6h1.4V94.7z"/>
	<path stroke="#FFFFFF" stroke-miterlimit="10" d="M308.4,97.6c0.301-0.399,0.6-0.699,1-0.899s0.801-0.3,1.301-0.3
		c0.398,0,0.699,0.1,1.1,0.199c0.299,0.101,0.6,0.301,0.799,0.5c0.201,0.2,0.4,0.5,0.5,0.9c0.102,0.4,0.201,0.8,0.201,1.3v4.7H312
		v-4.7c0-0.6-0.1-1.1-0.4-1.399c-0.299-0.301-0.699-0.4-1.199-0.4c-0.4,0-0.801,0.1-1.1,0.3c-0.301,0.2-0.6,0.5-0.801,0.8v5.4
		h-1.299V93.4h1.299V97.6H308.4z"/>
	<path stroke="#FFFFFF" stroke-miterlimit="10" d="M315.701,96.5h3.799v6.3h2.4v1.101h-6.199V102.8h2.5v-5.2h-2.5V96.5L315.701,96.5
		z M318.099,94.6c0-0.199,0.102-0.399,0.201-0.5c0.1-0.1,0.299-0.199,0.6-0.199s0.4,0.1,0.6,0.199c0.1,0.101,0.201,0.301,0.201,0.5
		c0,0.2-0.102,0.4-0.201,0.5c-0.1,0.101-0.299,0.2-0.6,0.2s-0.4-0.1-0.6-0.2C318.099,95,318.099,94.8,318.099,94.6z"/>
	<path stroke="#FFFFFF" stroke-miterlimit="10" d="M325,96.5l0.1,1.1c0.301-0.399,0.602-0.699,1-0.899c0.4-0.2,0.801-0.3,1.301-0.3
		c0.4,0,0.699,0.1,1.1,0.199c0.301,0.101,0.6,0.301,0.801,0.5c0.199,0.2,0.4,0.5,0.5,0.9S330,98.8,330,99.3v4.7h-1.299v-4.7
		c0-0.3,0-0.6-0.102-0.8c-0.1-0.2-0.199-0.4-0.299-0.6c-0.1-0.101-0.301-0.2-0.5-0.301c-0.201-0.1-0.4-0.1-0.701-0.1
		c-0.398,0-0.799,0.1-1.1,0.3c-0.299,0.2-0.6,0.5-0.799,0.8v5.301H323.9v-7.4H325z"/>
	<path stroke="#FFFFFF" stroke-miterlimit="10" d="M231.1,114.1c0-0.5,0.101-1,0.2-1.5c0.199-0.5,0.4-0.899,0.699-1.199
		c0.301-0.301,0.601-0.601,1.101-0.801c0.399-0.199,0.899-0.3,1.399-0.3s1,0.101,1.4,0.3c0.4,0.2,0.801,0.5,1.1,0.801
		c0.301,0.3,0.5,0.699,0.701,1.199c0.199,0.5,0.199,1,0.199,1.5v0.2c0,0.5-0.1,1-0.199,1.5c-0.101,0.5-0.4,0.9-0.701,1.2
		c-0.299,0.3-0.6,0.6-1.1,0.8s-0.9,0.3-1.4,0.3s-1-0.1-1.399-0.3s-0.8-0.5-1.101-0.8c-0.299-0.3-0.5-0.7-0.699-1.2
		c-0.2-0.5-0.2-1-0.2-1.5V114.1z M232.4,114.2c0,0.399,0,0.7,0.1,1c0.101,0.3,0.201,0.6,0.4,0.899c0.2,0.301,0.4,0.4,0.7,0.601
		s0.601,0.2,0.899,0.2c0.301,0,0.701-0.101,0.9-0.2c0.301-0.101,0.5-0.3,0.7-0.601c0.2-0.3,0.3-0.5,0.399-0.899
		c0.101-0.3,0.101-0.7,0.101-1V114c0-0.4,0-0.7-0.101-1c-0.1-0.3-0.199-0.6-0.399-0.9c-0.2-0.3-0.399-0.5-0.7-0.6
		c-0.3-0.1-0.6-0.2-0.9-0.2c-0.299,0-0.699,0.101-0.899,0.2c-0.3,0.1-0.5,0.3-0.7,0.6c-0.199,0.301-0.3,0.5-0.4,0.9
		c-0.1,0.3-0.1,0.7-0.1,1V114.2z"/>
	<path stroke="#FFFFFF" stroke-miterlimit="10" d="M243,117c0.201,0,0.5,0,0.701-0.1c0.199-0.101,0.399-0.2,0.6-0.301
		c0.199-0.1,0.3-0.3,0.4-0.5c0.1-0.199,0.199-0.399,0.199-0.6h1.2c0,0.3-0.101,0.6-0.3,0.9c-0.2,0.3-0.4,0.6-0.7,0.8
		s-0.601,0.399-1,0.5c-0.399,0.1-0.7,0.2-1.101,0.2c-0.6,0-1.1-0.101-1.5-0.301c-0.399-0.199-0.799-0.5-1-0.8
		c-0.299-0.3-0.5-0.7-0.6-1.2c-0.1-0.399-0.199-0.899-0.199-1.399V114c0-0.5,0.1-1,0.199-1.4c0.1-0.399,0.4-0.8,0.6-1.199
		c0.301-0.301,0.601-0.601,1-0.801c0.4-0.199,0.9-0.3,1.5-0.3c0.4,0,0.801,0.101,1.201,0.2c0.399,0.1,0.699,0.3,1,0.6
		c0.299,0.2,0.5,0.5,0.6,0.9s0.199,0.7,0.199,1.1H244.8c0-0.199-0.1-0.399-0.1-0.6c-0.101-0.2-0.201-0.4-0.4-0.5
		c-0.2-0.1-0.301-0.3-0.6-0.4c-0.201-0.1-0.5-0.1-0.701-0.1c-0.399,0-0.699,0.1-1,0.2c-0.299,0.2-0.5,0.399-0.6,0.6
		c-0.199,0.3-0.3,0.5-0.4,0.9c-0.1,0.3-0.1,0.6-0.1,1v0.3c0,0.3,0,0.6,0.1,1c0.101,0.3,0.201,0.6,0.301,0.9
		c0.199,0.3,0.4,0.5,0.6,0.6C242.3,116.9,242.6,117,243,117z"/>
	<path stroke="#FFFFFF" stroke-miterlimit="10" d="M251.4,117c0.2,0,0.5,0,0.7-0.1c0.2-0.101,0.399-0.2,0.601-0.301
		c0.199-0.1,0.299-0.3,0.399-0.5c0.101-0.199,0.2-0.399,0.2-0.6h1.199c0,0.3-0.1,0.6-0.299,0.9c-0.201,0.3-0.4,0.6-0.701,0.8
		c-0.299,0.2-0.6,0.399-1,0.5c-0.399,0.1-0.699,0.2-1.1,0.2c-0.6,0-1.1-0.101-1.5-0.301c-0.4-0.199-0.8-0.5-1-0.8
		c-0.3-0.3-0.5-0.7-0.6-1.2c-0.1-0.399-0.2-0.899-0.2-1.399V114c0-0.5,0.101-1,0.2-1.4c0.1-0.399,0.4-0.8,0.6-1.199
		c0.301-0.301,0.6-0.601,1-0.801c0.4-0.199,0.9-0.3,1.5-0.3c0.4,0,0.801,0.101,1.2,0.2s0.7,0.3,1,0.6c0.3,0.2,0.5,0.5,0.601,0.9
		c0.1,0.4,0.199,0.7,0.199,1.1h-1.199c0-0.199-0.101-0.399-0.101-0.6c-0.101-0.2-0.2-0.4-0.399-0.5c-0.201-0.1-0.301-0.3-0.601-0.4
		c-0.2-0.1-0.5-0.1-0.7-0.1c-0.4,0-0.699,0.1-1,0.2c-0.3,0.2-0.5,0.399-0.6,0.6c-0.2,0.3-0.301,0.5-0.4,0.9c-0.1,0.3-0.1,0.6-0.1,1
		v0.3c0,0.3,0,0.6,0.1,1c0.1,0.3,0.2,0.6,0.301,0.9c0.199,0.3,0.399,0.5,0.6,0.6C250.701,116.9,251,117,251.4,117z"/>
	<path stroke="#FFFFFF" stroke-miterlimit="10" d="M261.5,116.8c-0.199,0.4-0.6,0.601-0.899,0.9c-0.399,0.2-0.8,0.3-1.3,0.3
		c-0.4,0-0.7-0.1-1.1-0.2c-0.301-0.1-0.601-0.3-0.801-0.6c-0.199-0.3-0.4-0.601-0.5-1c-0.1-0.4-0.199-0.9-0.199-1.4V110.4H258v4.399
		c0,0.4,0,0.7,0.101,1s0.2,0.5,0.3,0.601c0.1,0.199,0.301,0.3,0.5,0.3c0.2,0.1,0.4,0.1,0.6,0.1c0.5,0,0.9-0.1,1.201-0.3
		c0.299-0.2,0.6-0.5,0.699-0.8v-5.3h1.301v7.399H261.6L261.5,116.8z"/>
	<path stroke="#FFFFFF" stroke-miterlimit="10" d="M271.3,114.2c0,0.5-0.1,1-0.2,1.5s-0.3,0.899-0.601,1.2
		c-0.299,0.3-0.5,0.6-0.899,0.8s-0.8,0.3-1.2,0.3c-0.5,0-0.8-0.1-1.199-0.2c-0.301-0.1-0.601-0.399-0.9-0.6v3.6H265v-10.2h1.201
		l0.1,0.801c0.199-0.301,0.5-0.5,0.9-0.7c0.299-0.2,0.799-0.2,1.199-0.2c0.5,0,0.9,0.1,1.301,0.3c0.399,0.2,0.699,0.4,0.899,0.8
		c0.2,0.4,0.399,0.7,0.601,1.2c0.1,0.5,0.199,1,0.199,1.5v-0.1H271.3z M270.1,114.1c0-0.399,0-0.699-0.101-1
		c-0.1-0.3-0.199-0.6-0.399-0.899c-0.2-0.2-0.399-0.4-0.601-0.601c-0.199-0.199-0.6-0.199-0.899-0.199c-0.399,0-0.7,0.1-1,0.3
		s-0.5,0.399-0.7,0.7v3.6c0.2,0.3,0.4,0.5,0.7,0.7s0.601,0.3,1,0.3s0.7-0.1,0.899-0.2c0.301-0.1,0.5-0.3,0.601-0.6
		s0.3-0.5,0.399-0.9c0.101-0.3,0.101-0.7,0.101-1V114.1z"/>
	<path stroke="#FFFFFF" stroke-miterlimit="10" d="M278.4,117.9c0-0.101-0.1-0.2-0.1-0.4c0-0.1-0.1-0.3-0.1-0.4
		c-0.101,0.101-0.301,0.2-0.4,0.4c-0.2,0.1-0.301,0.2-0.5,0.3c-0.2,0.101-0.4,0.2-0.6,0.2c-0.201,0-0.4,0.1-0.701,0.1
		c-0.399,0-0.699-0.1-1.1-0.199c-0.3-0.101-0.6-0.301-0.8-0.5c-0.2-0.2-0.399-0.4-0.5-0.7s-0.2-0.601-0.2-0.9
		c0-0.399,0.1-0.8,0.2-1.1c0.2-0.3,0.399-0.601,0.7-0.8c0.3-0.2,0.699-0.4,1.1-0.5c0.4-0.101,0.9-0.2,1.4-0.2h1.4V112.6
		c0-0.199,0-0.399-0.101-0.6s-0.2-0.3-0.3-0.5c-0.2-0.1-0.301-0.2-0.6-0.3c-0.201-0.101-0.5-0.101-0.701-0.101
		c-0.299,0-0.5,0-0.699,0.101c-0.2,0.1-0.4,0.1-0.5,0.3s-0.2,0.2-0.301,0.4c-0.1,0.1-0.1,0.3-0.1,0.399h-1.3
		c0-0.3,0.101-0.5,0.2-0.8s0.3-0.5,0.6-0.7c0.301-0.2,0.6-0.399,0.9-0.5c0.4-0.1,0.8-0.2,1.199-0.2c0.4,0,0.801,0.101,1.201,0.2
		c0.399,0.101,0.699,0.3,0.899,0.5c0.3,0.2,0.5,0.5,0.601,0.8c0.1,0.301,0.199,0.7,0.199,1.101v3.399c0,0.2,0,0.5,0.1,0.801
		c0,0.3,0.101,0.5,0.201,0.699v0.101H278.4V117.9z M276.1,116.9c0.2,0,0.5,0,0.7-0.101c0.199-0.1,0.4-0.1,0.6-0.3
		c0.2-0.1,0.301-0.2,0.5-0.4c0.1-0.1,0.2-0.3,0.301-0.399v-1.5H277c-0.699,0-1.299,0.1-1.699,0.3s-0.6,0.6-0.6,1
		c0,0.2,0,0.4,0.1,0.5c0.1,0.2,0.199,0.3,0.3,0.4c0.101,0.1,0.3,0.199,0.5,0.3C275.8,116.8,275.9,116.9,276.1,116.9z"/>
	<path stroke="#FFFFFF" stroke-miterlimit="10" d="M284.9,108.7v1.8h2.801v1H284.9v4c0,0.3,0,0.5,0.1,0.7
		c0.101,0.2,0.201,0.3,0.301,0.399c0.1,0.101,0.3,0.2,0.4,0.2c0.199,0,0.299,0.101,0.5,0.101c0.1,0,0.299,0,0.399,0
		s0.3,0,0.399-0.101c0.101,0,0.301,0,0.4-0.1c0.1,0,0.2,0,0.301-0.101l0.199,0.9c-0.1,0.1-0.199,0.1-0.4,0.2
		c-0.199,0-0.299,0.1-0.5,0.1c-0.199,0-0.399,0.101-0.6,0.101c-0.199,0-0.4,0-0.6,0c-0.301,0-0.6,0-0.9-0.101
		c-0.3-0.1-0.5-0.2-0.699-0.399c-0.201-0.2-0.4-0.5-0.5-0.801c-0.101-0.3-0.201-0.699-0.201-1.199v-4H281.6v-1h1.899V108.6h1.4
		V108.7z"/>
	<path stroke="#FFFFFF" stroke-miterlimit="10" d="M290.5,110.5h3.801v6.3h2.4v1.101H290.5V116.8h2.5v-5.2h-2.5V110.5L290.5,110.5z
		 M292.8,108.5c0-0.2,0.1-0.4,0.199-0.5c0.101-0.1,0.301-0.2,0.601-0.2s0.399,0.101,0.601,0.2c0.1,0.1,0.199,0.3,0.199,0.5
		s-0.1,0.4-0.199,0.5c-0.101,0.1-0.301,0.2-0.601,0.2S293.201,109.1,293,109C292.9,108.9,292.8,108.7,292.8,108.5z"/>
	<path stroke="#FFFFFF" stroke-miterlimit="10" d="M298.3,114.1c0-0.5,0.1-1,0.199-1.5c0.201-0.5,0.4-0.899,0.701-1.199
		c0.299-0.301,0.6-0.601,1.1-0.801c0.4-0.199,0.9-0.3,1.4-0.3s1,0.101,1.399,0.3c0.399,0.2,0.8,0.5,1.101,0.801
		c0.299,0.3,0.5,0.699,0.699,1.199c0.2,0.5,0.2,1,0.2,1.5v0.2c0,0.5-0.101,1-0.2,1.5s-0.4,0.9-0.699,1.2
		c-0.301,0.3-0.601,0.6-1.101,0.8s-0.899,0.3-1.399,0.3s-1-0.1-1.4-0.3s-0.801-0.5-1.1-0.8c-0.301-0.3-0.5-0.7-0.701-1.2
		c-0.199-0.5-0.199-1-0.199-1.5V114.1z M299.6,114.2c0,0.399,0,0.7,0.101,1c0.1,0.3,0.199,0.6,0.399,0.899
		c0.2,0.301,0.399,0.4,0.7,0.601c0.3,0.2,0.6,0.2,0.9,0.2c0.299,0,0.699-0.101,0.899-0.2c0.3-0.101,0.5-0.3,0.7-0.601
		c0.199-0.3,0.3-0.5,0.4-0.899c0.1-0.3,0.1-0.7,0.1-1V114c0-0.4,0-0.7-0.1-1c-0.101-0.3-0.201-0.6-0.4-0.9c-0.2-0.3-0.4-0.5-0.7-0.6
		s-0.601-0.2-0.899-0.2c-0.301,0-0.701,0.101-0.9,0.2c-0.301,0.1-0.5,0.3-0.7,0.6c-0.2,0.301-0.3,0.5-0.399,0.9
		c-0.101,0.3-0.101,0.7-0.101,1V114.2z"/>
	<path stroke="#FFFFFF" stroke-miterlimit="10" d="M308.201,110.5l0.1,1.1c0.299-0.399,0.6-0.699,1-0.899s0.799-0.3,1.299-0.3
		c0.4,0,0.701,0.1,1.102,0.199c0.299,0.101,0.6,0.301,0.799,0.5c0.201,0.2,0.4,0.5,0.5,0.9s0.201,0.8,0.201,1.3v4.7H311.9v-4.7
		c0-0.3,0-0.6-0.1-0.8s-0.201-0.4-0.301-0.6c-0.1-0.101-0.299-0.2-0.5-0.301c-0.199-0.1-0.4-0.1-0.699-0.1c-0.4,0-0.801,0.1-1.1,0.3
		c-0.301,0.2-0.602,0.5-0.801,0.8v5.301h-1.301v-7.4H308.201z"/>
</g>
<g>
	<g>
		<path fill="#2A343F" d="M9.3,13.4H7.8v3.7H5.9v-10h3.3c0.6,0,1.1,0.1,1.5,0.2c0.4,0.1,0.8,0.3,1.1,0.6c0.3,0.3,0.6,0.6,0.7,0.9
			c0.1,0.3,0.3,0.8,0.3,1.3c0,0.4,0,0.7-0.1,1c-0.1,0.3-0.2,0.5-0.4,0.8c-0.2,0.3-0.3,0.4-0.6,0.6c-0.3,0.2-0.5,0.3-0.7,0.4l2.1,4.1
			v0.1H11L9.3,13.4z M7.8,11.9h1.4c0.5,0,1-0.1,1.3-0.4s0.4-0.7,0.4-1.1c0-0.5-0.1-0.9-0.4-1.2c-0.3-0.3-0.7-0.5-1.3-0.5H7.8V11.9z"
			/>
		<path fill="#2A343F" d="M18,17.3c-0.6,0-1.1-0.1-1.6-0.3s-0.9-0.4-1.2-0.8c-0.3-0.4-0.6-0.7-0.8-1.1c-0.2-0.4-0.3-0.9-0.3-1.4
			v-0.3c0-0.6,0.1-1.1,0.3-1.5c0.2-0.4,0.4-0.9,0.7-1.2c0.3-0.3,0.7-0.6,1.1-0.8c0.4-0.2,0.9-0.3,1.4-0.3s1,0.1,1.4,0.3
			c0.4,0.2,0.8,0.4,1.1,0.7c0.3,0.3,0.5,0.7,0.7,1.2c0.2,0.5,0.2,0.9,0.2,1.5V14h-5c0,0.3,0.1,0.5,0.2,0.7c0.1,0.2,0.3,0.4,0.4,0.5
			c0.1,0.1,0.4,0.3,0.6,0.3c0.2,0,0.5,0.1,0.7,0.1c0.2,0,0.4,0,0.6-0.1s0.4-0.1,0.5-0.2c0.1-0.1,0.3-0.2,0.5-0.3s0.3-0.2,0.4-0.4
			l1,1c-0.1,0.2-0.3,0.3-0.5,0.5c-0.2,0.2-0.4,0.3-0.7,0.4c-0.3,0.1-0.5,0.2-0.9,0.3C18.4,16.9,18.3,17.3,18,17.3z M17.7,11.1
			c-0.2,0-0.4,0-0.6,0.1c-0.2,0.1-0.3,0.2-0.5,0.3c-0.2,0.1-0.2,0.3-0.3,0.5c-0.1,0.2-0.2,0.4-0.2,0.7h3.1v-0.2c0-0.2,0-0.4-0.1-0.6
			c-0.1-0.2-0.2-0.3-0.3-0.5c-0.1-0.2-0.3-0.2-0.5-0.3C18.1,11,18,11.1,17.7,11.1z"/>
		<path fill="#2A343F" d="M23.2,6.6h4.1v9h2.1v1.5h-6.3v-1.5h2.2V8.2h-2.2V6.6H23.2z"/>
		<path fill="#2A343F" d="M35.8,17.1c0-0.1-0.1-0.2-0.1-0.3c0-0.1-0.1-0.2-0.1-0.4c-0.1,0.1-0.2,0.2-0.4,0.3
			C35,16.8,34.9,17,34.8,17c-0.1,0-0.3,0.1-0.6,0.2c-0.3,0.1-0.4,0.1-0.6,0.1c-0.4,0-0.7-0.1-1-0.2c-0.3-0.1-0.6-0.3-0.8-0.5
			c-0.2-0.2-0.4-0.4-0.5-0.7c-0.1-0.3-0.3-0.5-0.3-0.8c0-0.8,0.3-1.4,0.9-1.8c0.6-0.4,1.4-0.6,2.6-0.6h1.1v-0.4
			c0-0.4-0.1-0.6-0.3-0.8c-0.2-0.2-0.6-0.3-1-0.3c-0.4,0-0.7,0.1-0.8,0.2s-0.3,0.4-0.3,0.7h-1.9c0-0.3,0.1-0.6,0.2-0.9
			c0.1-0.3,0.3-0.5,0.6-0.7c0.3-0.2,0.6-0.4,1-0.5s0.8-0.2,1.3-0.2c0.4,0,0.9,0.1,1.2,0.2c0.3,0.1,0.7,0.3,1,0.5
			c0.3,0.2,0.5,0.5,0.7,0.8c0.2,0.3,0.2,0.7,0.2,1.1v3.2c0,0.4,0,0.7,0.1,1c0.1,0.3,0.1,0.5,0.2,0.7v0.1h-2V17.1z M34,15.8
			c0.2,0,0.4,0,0.5-0.1c0.1-0.1,0.3-0.1,0.4-0.2s0.2-0.2,0.3-0.2c0.1,0,0.2-0.2,0.2-0.3v-1.3h-1c-0.3,0-0.5,0-0.8,0.1
			c-0.3,0.1-0.4,0.1-0.5,0.2s-0.2,0.2-0.3,0.4c-0.1,0.2-0.1,0.3-0.1,0.5c0,0.3,0.1,0.5,0.3,0.6S33.6,15.8,34,15.8z"/>
		<path fill="#2A343F" d="M43.1,7.9v1.8h2.8v1.4h-2.8v3.2c0,0.3,0,0.5,0.1,0.7c0.1,0.2,0.1,0.3,0.3,0.4s0.3,0.2,0.4,0.2
			s0.3,0.1,0.5,0.1c0.1,0,0.3,0,0.4,0c0.1,0,0.3,0,0.4-0.1c0.1-0.1,0.3,0,0.4-0.1s0.2,0,0.3-0.1l0.2,1.3C46,16.9,45.9,17,45.7,17
			c-0.2,0-0.4,0.1-0.6,0.1c-0.2,0-0.4,0.1-0.6,0.1s-0.4,0-0.6,0c-0.4,0-0.8-0.1-1.1-0.2c-0.3-0.1-0.6-0.3-0.8-0.5s-0.4-0.5-0.5-0.9
			s-0.2-0.8-0.2-1.3v-3.4h-1.7V9.7h1.7V7.9H43.1z"/>
		<path fill="#2A343F" d="M48.5,9.7h4v5.9h2v1.5h-6v-1.5h2.1v-4.3h-2.1V9.7z M50.4,7.8c0-0.1,0-0.3,0.1-0.4s0.1-0.2,0.2-0.3
			C50.8,7,51,7,51.1,6.9s0.3-0.1,0.4-0.1c0.3,0,0.6,0.1,0.8,0.3c0.2,0.2,0.3,0.4,0.3,0.7c0,0.3-0.1,0.5-0.3,0.7
			c-0.2,0.2-0.5,0.3-0.8,0.3c-0.2,0-0.3,0-0.4-0.1c-0.1-0.1-0.2-0.1-0.3-0.2c-0.1-0.1-0.2-0.2-0.2-0.3C50.6,8.1,50.4,8,50.4,7.8z"/>
		<path fill="#2A343F" d="M56.1,13.4c0-0.5,0.1-1,0.2-1.5c0.1-0.5,0.4-0.9,0.7-1.2c0.3-0.3,0.7-0.6,1.1-0.8c0.4-0.2,0.9-0.3,1.5-0.3
			s1.1,0.1,1.5,0.3c0.4,0.2,0.8,0.5,1.1,0.8c0.3,0.3,0.5,0.7,0.7,1.2c0.2,0.5,0.2,1,0.2,1.5v0.1c0,0.5-0.1,1-0.2,1.5
			s-0.4,0.9-0.7,1.2c-0.3,0.3-0.7,0.6-1.1,0.8s-0.9,0.3-1.5,0.3s-1.1-0.1-1.5-0.3s-0.8-0.5-1.1-0.8c-0.3-0.3-0.5-0.7-0.7-1.2
			c-0.2-0.5-0.2-1-0.2-1.5V13.4z M58,13.5c0,0.3,0,0.6,0.1,0.9c0.1,0.3,0.2,0.5,0.3,0.7c0.1,0.2,0.3,0.4,0.5,0.5
			c0.2,0.1,0.4,0.2,0.7,0.2c0.3,0,0.5-0.1,0.7-0.2c0.2-0.1,0.4-0.3,0.5-0.5c0.1-0.2,0.2-0.4,0.3-0.7c0.1-0.3,0.1-0.6,0.1-0.9v-0.1
			c0-0.3,0-0.6-0.1-0.9s-0.2-0.5-0.3-0.7c-0.1-0.2-0.3-0.4-0.5-0.5c-0.2-0.1-0.4-0.2-0.7-0.2c-0.3,0-0.5,0.1-0.7,0.2
			c-0.2,0.1-0.4,0.3-0.5,0.5c-0.1,0.2-0.2,0.4-0.3,0.7S58,13.1,58,13.4V13.5z"/>
		<path fill="#2A343F" d="M66.5,9.7l0.1,1c0.3-0.4,0.6-0.7,1-0.9c0.4-0.2,0.8-0.3,1.3-0.3c0.4,0,0.7,0.1,1,0.2
			c0.3,0.1,0.6,0.3,0.8,0.5c0.2,0.2,0.4,0.5,0.5,0.9c0.1,0.4,0.2,0.8,0.2,1.4v4.6h-1.9v-4.5c0-0.3,0-0.5-0.1-0.7
			c-0.1-0.2-0.2-0.3-0.3-0.4s-0.3-0.2-0.4-0.2c-0.1,0-0.4-0.1-0.6-0.1c-0.3,0-0.6,0.1-0.8,0.2c-0.2,0.1-0.4,0.3-0.6,0.5v5.3h-1.9
			V9.7H66.5z"/>
		<path fill="#2A343F" d="M77.9,15.1c0-0.1,0-0.2-0.1-0.3c-0.1-0.1-0.1-0.2-0.3-0.2s-0.3-0.1-0.5-0.2s-0.5-0.1-0.8-0.2
			c-0.4-0.1-0.8-0.2-1.2-0.3s-0.7-0.3-0.9-0.5c-0.2-0.2-0.5-0.4-0.6-0.6c-0.1-0.2-0.2-0.5-0.2-0.8s0.1-0.6,0.2-0.9
			c0.1-0.3,0.4-0.5,0.6-0.7c0.2-0.2,0.6-0.4,1-0.5s0.8-0.2,1.3-0.2s1,0.1,1.4,0.2c0.4,0.1,0.8,0.3,1,0.5c0.2,0.2,0.5,0.5,0.7,0.8
			c0.2,0.3,0.2,0.6,0.2,1h-1.9c0-0.3-0.1-0.5-0.3-0.7s-0.6-0.5-1-0.5s-0.8,0.1-1,0.2c-0.2,0.1-0.3,0.4-0.3,0.6c0,0.1,0,0.2,0.1,0.3
			c0.1,0.1,0.1,0.2,0.2,0.3s0.3,0.1,0.5,0.2s0.5,0.1,0.8,0.2c0.4,0.1,0.9,0.2,1.2,0.3s0.7,0.3,1,0.4s0.5,0.4,0.7,0.7
			c0.2,0.3,0.2,0.6,0.2,0.9c0,0.3-0.1,0.6-0.2,0.9c-0.1,0.3-0.4,0.5-0.7,0.7c-0.3,0.2-0.6,0.4-1,0.5c-0.4,0.1-0.9,0.2-1.4,0.2
			c-0.6,0-1-0.1-1.5-0.2c-0.5-0.1-0.8-0.3-1.1-0.6c-0.3-0.3-0.5-0.5-0.7-0.8c-0.2-0.3-0.3-0.7-0.3-1h1.8c0,0.2,0.1,0.4,0.2,0.5
			c0.1,0.1,0.2,0.3,0.4,0.3c0.2,0,0.3,0.2,0.5,0.2c0.2,0,0.4,0.1,0.6,0.1c0.5,0,0.8-0.1,1.1-0.2C77.9,15.6,77.9,15.3,77.9,15.1z"/>
		<path fill="#2A343F" d="M83.5,10.8c0.2-0.4,0.5-0.6,0.9-0.8s0.7-0.3,1.2-0.3c0.4,0,0.7,0.1,1.1,0.2c0.4,0.1,0.6,0.3,0.8,0.5
			c0.2,0.2,0.4,0.6,0.5,0.9c0.1,0.3,0.2,0.8,0.2,1.4v4.5h-1.9v-4.5c0-0.3,0-0.5-0.1-0.7c-0.1-0.2-0.2-0.3-0.3-0.5s-0.3-0.2-0.4-0.3
			c-0.1-0.1-0.4-0.1-0.6-0.1c-0.3,0-0.6,0.1-0.8,0.2c-0.2,0.1-0.4,0.3-0.6,0.5v5.3h-1.9V6.6h1.9V10.8z"/>
		<path fill="#2A343F" d="M90.5,9.7h4v5.9h2v1.5h-6v-1.5h2.1v-4.3h-2.1V9.7z M92.5,7.8c0-0.1,0-0.3,0.1-0.4s0.1-0.2,0.2-0.3
			C92.9,7,93,7,93.1,6.9s0.3-0.1,0.4-0.1c0.3,0,0.6,0.1,0.8,0.3c0.2,0.2,0.3,0.4,0.3,0.7c0,0.3-0.1,0.5-0.3,0.7
			c-0.2,0.2-0.5,0.3-0.8,0.3c-0.2,0-0.3,0-0.4-0.1c-0.1-0.1-0.2-0.1-0.3-0.2c-0.1-0.1-0.2-0.2-0.2-0.3C92.6,8.1,92.5,8,92.5,7.8z"/>
		<path fill="#2A343F" d="M105,13.5c0,0.5-0.1,1-0.2,1.5c-0.1,0.5-0.3,0.9-0.6,1.2c-0.3,0.3-0.5,0.6-0.9,0.8
			c-0.4,0.2-0.8,0.3-1.2,0.3s-0.7-0.1-1-0.2c-0.3-0.1-0.6-0.3-0.8-0.6V20h-1.9V9.7h1.8l0.1,0.7c0.2-0.3,0.5-0.5,0.8-0.6
			c0.3-0.1,0.7-0.2,1.1-0.2c0.5,0,0.9,0.1,1.2,0.3c0.3,0.2,0.7,0.4,0.9,0.8c0.2,0.4,0.4,0.7,0.6,1.2c0.2,0.5,0.2,1,0.2,1.5v0.1H105z
			 M103.1,13.4c0-0.3,0-0.6-0.1-0.9s-0.1-0.5-0.3-0.7c-0.2-0.2-0.3-0.4-0.5-0.5c-0.2-0.1-0.4-0.2-0.7-0.2s-0.6,0.1-0.8,0.2
			c-0.2,0.1-0.4,0.3-0.5,0.6V15c0.1,0.2,0.3,0.4,0.5,0.6c0.2,0.2,0.5,0.2,0.8,0.2s0.5-0.1,0.7-0.2c0.2-0.1,0.3-0.3,0.5-0.5
			c0.2-0.2,0.2-0.4,0.3-0.7c0.1-0.3,0.1-0.6,0.1-0.9V13.4z"/>
		<path fill="#2A343F" d="M122.4,8.7h-3.1v8.4h-1.9V8.7h-3V7.2h8V8.7z"/>
		<path fill="#2A343F" d="M126.7,14l0.2,0.8l2-5.1h2.1l-3.8,8.5c-0.1,0.2-0.2,0.4-0.3,0.6c-0.1,0.2-0.3,0.4-0.5,0.6
			c-0.2,0.2-0.4,0.3-0.7,0.5c-0.3,0.2-0.6,0.2-1,0.2c-0.1,0-0.2,0-0.3,0s-0.2,0-0.2,0s-0.1,0-0.2,0s-0.1,0-0.2-0.1l0.2-1.4
			c0.1,0,0.2,0,0.3,0c0.1,0,0.2,0,0.3,0c0.2,0,0.3,0,0.4-0.1s0.2-0.2,0.3-0.3c0.1-0.1,0.1-0.2,0.2-0.3s0.1-0.1,0.1-0.1l0.5-0.9
			L123,9.7h2.1L126.7,14z"/>
		<path fill="#2A343F" d="M138.6,13.5c0,0.5-0.1,1-0.2,1.5s-0.3,0.9-0.6,1.2c-0.3,0.3-0.5,0.6-0.9,0.8s-0.8,0.3-1.2,0.3
			c-0.4,0-0.7-0.1-1-0.2c-0.3-0.1-0.6-0.3-0.8-0.6V20H132V9.7h1.8l0.1,0.7c0.2-0.3,0.5-0.5,0.8-0.6c0.3-0.1,0.7-0.2,1.1-0.2
			c0.5,0,0.9,0.1,1.2,0.3c0.3,0.2,0.7,0.4,0.9,0.8c0.2,0.4,0.4,0.7,0.6,1.2s0.2,1,0.2,1.5v0.1H138.6z M136.7,13.4
			c0-0.3,0-0.6-0.1-0.9s-0.1-0.5-0.3-0.7c-0.2-0.2-0.3-0.4-0.5-0.5c-0.2-0.1-0.4-0.2-0.7-0.2c-0.3,0-0.6,0.1-0.8,0.2
			c-0.2,0.1-0.4,0.3-0.5,0.6V15c0.1,0.2,0.3,0.4,0.5,0.6c0.2,0.2,0.5,0.2,0.8,0.2c0.3,0,0.5-0.1,0.7-0.2c0.2-0.1,0.3-0.3,0.5-0.5
			c0.2-0.2,0.2-0.4,0.3-0.7c0.1-0.3,0.1-0.6,0.1-0.9V13.4z"/>
		<path fill="#2A343F" d="M144,17.3c-0.6,0-1.1-0.1-1.6-0.3s-0.9-0.4-1.2-0.8c-0.3-0.4-0.6-0.7-0.8-1.1c-0.2-0.4-0.3-0.9-0.3-1.4
			v-0.3c0-0.6,0.1-1.1,0.3-1.5c0.2-0.4,0.4-0.9,0.7-1.2c0.3-0.3,0.7-0.6,1.1-0.8c0.4-0.2,0.9-0.3,1.4-0.3s1,0.1,1.4,0.3
			c0.4,0.2,0.8,0.4,1.1,0.7c0.3,0.3,0.5,0.7,0.7,1.2c0.2,0.5,0.2,0.9,0.2,1.5V14h-5c0,0.3,0.1,0.5,0.2,0.7c0.1,0.2,0.3,0.4,0.4,0.5
			c0.1,0.1,0.4,0.3,0.6,0.3c0.2,0,0.5,0.1,0.7,0.1c0.2,0,0.4,0,0.6-0.1s0.4-0.1,0.5-0.2c0.1-0.1,0.3-0.2,0.5-0.3s0.3-0.2,0.4-0.4
			l1,1c-0.1,0.2-0.3,0.3-0.5,0.5c-0.2,0.2-0.4,0.3-0.7,0.4c-0.3,0.1-0.5,0.2-0.9,0.3C144.4,16.9,144.3,17.3,144,17.3z M143.7,11.1
			c-0.2,0-0.4,0-0.6,0.1c-0.2,0.1-0.3,0.2-0.5,0.3c-0.2,0.1-0.2,0.3-0.3,0.5c-0.1,0.2-0.2,0.4-0.2,0.7h3.1v-0.2c0-0.2,0-0.4-0.1-0.6
			c-0.1-0.2-0.2-0.3-0.3-0.5c-0.1-0.2-0.3-0.2-0.5-0.3C144.1,11,144,11.1,143.7,11.1z"/>
		<path fill="#2A343F" d="M153.6,15.1c0-0.1,0-0.2-0.1-0.3c-0.1-0.1-0.1-0.2-0.3-0.2c-0.2,0-0.3-0.1-0.5-0.2
			c-0.2-0.1-0.5-0.1-0.8-0.2c-0.4-0.1-0.8-0.2-1.2-0.3c-0.4-0.1-0.7-0.3-0.9-0.5c-0.2-0.2-0.5-0.4-0.6-0.6c-0.1-0.2-0.2-0.5-0.2-0.8
			s0.1-0.6,0.2-0.9c0.1-0.3,0.4-0.5,0.6-0.7c0.2-0.2,0.6-0.4,1-0.5c0.4-0.1,0.8-0.2,1.3-0.2s1,0.1,1.4,0.2s0.8,0.3,1,0.5
			c0.2,0.2,0.5,0.5,0.7,0.8c0.2,0.3,0.2,0.6,0.2,1h-1.9c0-0.3-0.1-0.5-0.3-0.7c-0.2-0.2-0.6-0.3-1.1-0.3c-0.4,0-0.8,0.1-1,0.2
			c-0.2,0.1-0.3,0.4-0.3,0.6c0,0.1,0,0.2,0.1,0.3c0.1,0.1,0.1,0.2,0.2,0.3s0.3,0.1,0.5,0.2c0.2,0.1,0.5,0.1,0.8,0.2
			c0.4,0.1,0.9,0.2,1.2,0.3c0.3,0.1,0.7,0.3,1,0.4c0.3,0.1,0.5,0.4,0.7,0.7c0.2,0.3,0.2,0.6,0.2,0.9c0,0.3-0.1,0.6-0.2,0.9
			c-0.1,0.3-0.4,0.5-0.7,0.7c-0.3,0.2-0.6,0.4-1,0.5s-0.9,0.2-1.4,0.2c-0.6,0-1-0.1-1.5-0.2s-0.8-0.3-1.1-0.6
			c-0.3-0.3-0.5-0.5-0.7-0.8c-0.2-0.3-0.2-0.6-0.2-0.9h1.8c0,0.2,0.1,0.4,0.2,0.5c0.1,0.1,0.2,0.3,0.4,0.3c0.2,0,0.3,0.2,0.5,0.2
			c0.2,0,0.4,0.1,0.6,0.1c0.5,0,0.8-0.1,1.1-0.2C153.6,15.9,153.6,15.3,153.6,15.1z"/>
		<path fill="#2A343F" d="M7.4,28c0-0.7,0.1-1.3,0.2-1.8s0.2-1.1,0.4-1.6s0.4-0.9,0.6-1.3c0.2-0.4,0.5-0.8,0.7-1.1
			c0.2-0.3,0.5-0.6,0.7-0.8c0.2-0.2,0.5-0.4,0.7-0.5l0.3,0.8c-0.3,0.2-0.6,0.5-0.8,0.9C10,23,9.7,23.4,9.4,23.9
			c-0.3,0.5-0.3,1.1-0.5,1.8c-0.2,0.7-0.2,1.5-0.2,2.3v0.1c0,0.9,0.1,1.6,0.2,2.3c0.1,0.7,0.3,1.3,0.5,1.8c0.2,0.5,0.5,1,0.8,1.4
			c0.3,0.4,0.6,0.7,0.8,0.9l-0.3,0.8c-0.2-0.1-0.5-0.3-0.7-0.5c-0.2-0.2-0.5-0.5-0.8-0.8c-0.3-0.3-0.5-0.7-0.7-1.1S8.2,32,8,31.5
			s-0.3-1-0.4-1.6S7.4,28.7,7.4,28L7.4,28z"/>
		<path fill="#2A343F" d="M21.3,23.2h-3.1v8.9H17v-8.9h-3.1v-1.1h7.4V23.2z"/>
		<path fill="#2A343F" d="M24.3,25.8c0.3-0.4,0.6-0.7,1-0.9c0.4-0.2,0.8-0.3,1.3-0.3c0.4,0,0.7,0.1,1.1,0.2c0.4,0.1,0.6,0.3,0.8,0.5
			c0.2,0.2,0.4,0.5,0.5,0.9c0.1,0.4,0.2,0.8,0.2,1.3v4.7h-1.3v-4.7c0-0.6-0.1-1.1-0.4-1.4c-0.3-0.3-0.7-0.4-1.2-0.4
			c-0.4,0-0.8,0.1-1.1,0.3c-0.3,0.2-0.6,0.5-0.8,0.8v5.4H23V21.6h1.3V25.8z"/>
		<path fill="#2A343F" d="M31.6,24.7h3.8V31h2.4v1.1h-6.2V31h2.5v-5.2h-2.5V24.7z M33.9,22.7c0-0.2,0.1-0.4,0.2-0.5
			c0.1-0.1,0.3-0.2,0.6-0.2c0.3,0,0.4,0.1,0.6,0.2c0.2,0.1,0.2,0.3,0.2,0.5c0,0.2-0.1,0.4-0.2,0.5c-0.1,0.1-0.3,0.2-0.6,0.2
			c-0.3,0-0.4-0.1-0.6-0.2C33.9,23.1,33.9,22.9,33.9,22.7z"/>
		<path fill="#2A343F" d="M42.9,31.2c0.2,0,0.5,0,0.7-0.1c0.2-0.1,0.4-0.2,0.6-0.3c0.2-0.1,0.3-0.3,0.4-0.5c0.1-0.2,0.2-0.4,0.2-0.6
			H46c0,0.3-0.1,0.6-0.3,0.9c-0.2,0.3-0.4,0.6-0.7,0.8c-0.3,0.2-0.6,0.4-1,0.5s-0.7,0.2-1.1,0.2c-0.6,0-1.1-0.1-1.5-0.3
			c-0.4-0.2-0.8-0.5-1-0.8c-0.2-0.3-0.5-0.7-0.6-1.2c-0.1-0.5-0.2-0.9-0.2-1.4v-0.3c0-0.5,0.1-1,0.2-1.4c0.1-0.4,0.4-0.8,0.6-1.2
			c0.2-0.4,0.6-0.6,1-0.8c0.4-0.2,0.9-0.3,1.5-0.3c0.4,0,0.8,0.1,1.2,0.2s0.7,0.3,1,0.6c0.3,0.3,0.5,0.5,0.6,0.9
			c0.1,0.4,0.2,0.7,0.2,1.1h-1.2c0-0.2-0.1-0.4-0.1-0.6c0-0.2-0.2-0.4-0.4-0.5c-0.2-0.1-0.3-0.3-0.6-0.4c-0.3-0.1-0.5-0.1-0.7-0.1
			c-0.4,0-0.7,0.1-1,0.2c-0.3,0.1-0.5,0.4-0.6,0.6C41.2,26.6,41,27,41,27.3c0,0.3-0.1,0.6-0.1,1v0.3c0,0.3,0,0.6,0.1,1
			s0.2,0.6,0.3,0.9c0.1,0.3,0.4,0.5,0.6,0.6C42.1,31.2,42.6,31.2,42.9,31.2z"/>
		<path fill="#2A343F" d="M50.4,28.6l-0.9,0.9v2.6h-1.3V21.6h1.3V28l0.8-0.9l2.4-2.4h1.5l-3,3.1l3.5,4.3h-1.6L50.4,28.6z"/>
		<path fill="#2A343F" d="M59.9,32.2c-0.5,0-1-0.1-1.4-0.3c-0.4-0.2-0.8-0.4-1.1-0.7c-0.3-0.3-0.6-0.7-0.7-1.1
			c-0.1-0.4-0.3-0.9-0.3-1.4v-0.3c0-0.6,0.1-1.1,0.3-1.6c0.2-0.5,0.4-0.9,0.8-1.2c0.4-0.3,0.7-0.6,1.1-0.7s0.8-0.3,1.2-0.3
			c0.5,0,1,0.1,1.4,0.3c0.4,0.2,0.7,0.4,1,0.8c0.3,0.4,0.5,0.7,0.6,1.2c0.1,0.5,0.2,0.9,0.2,1.4v0.6h-5.3c0,0.3,0.1,0.7,0.2,1
			c0.1,0.3,0.3,0.6,0.5,0.8c0.2,0.2,0.4,0.4,0.7,0.5c0.3,0.1,0.6,0.2,0.9,0.2c0.5,0,0.9-0.1,1.2-0.3c0.3-0.2,0.6-0.4,0.9-0.7
			l0.8,0.6c-0.1,0.2-0.3,0.4-0.5,0.5c-0.2,0.1-0.4,0.3-0.6,0.5c-0.2,0.2-0.5,0.2-0.8,0.3C60.7,32.4,60.2,32.2,59.9,32.2z M59.7,25.6
			c-0.3,0-0.5,0-0.7,0.1c-0.2,0.1-0.4,0.2-0.6,0.4c-0.2,0.2-0.3,0.4-0.5,0.7c-0.2,0.3-0.2,0.6-0.3,0.9h4v-0.1c0-0.2-0.1-0.5-0.1-0.7
			c0-0.2-0.2-0.5-0.4-0.6c-0.2-0.1-0.3-0.3-0.6-0.5C60.2,25.6,60,25.6,59.7,25.6z"/>
		<path fill="#2A343F" d="M69.8,24.5c0.1,0,0.2,0,0.4,0c0.2,0,0.2,0,0.4,0c0.2,0,0.2,0,0.3,0.1s0.2,0,0.2,0.1L71,25.9
			c-0.2-0.1-0.5-0.1-0.7-0.1c-0.2,0-0.5,0-0.7,0c-0.6,0-1.1,0.1-1.4,0.4c-0.3,0.3-0.6,0.6-0.8,1.1V32h-1.3v-7.4h1.2l0.1,1.2
			c0.3-0.4,0.7-0.7,1.1-1C68.9,24.5,69.3,24.5,69.8,24.5z"/>
		<path fill="#2A343F" d="M82,21.6h3.8V31h2.4v1.1H82V31h2.5v-8.3H82V21.6z"/>
		<path fill="#2A343F" d="M90.4,24.7h3.8V31h2.4v1.1h-6.2V31h2.5v-5.2h-2.5V24.7L90.4,24.7z M92.8,22.7c0-0.2,0.1-0.4,0.2-0.5
			c0.1-0.1,0.3-0.2,0.6-0.2c0.3,0,0.4,0.1,0.6,0.2c0.2,0.1,0.2,0.3,0.2,0.5c0,0.2-0.1,0.4-0.2,0.5c-0.1,0.1-0.3,0.2-0.6,0.2
			c-0.3,0-0.4-0.1-0.6-0.2C92.8,23.1,92.8,22.9,92.8,22.7z"/>
		<path fill="#2A343F" d="M99.7,24.7l0.1,1.1c0.3-0.4,0.6-0.7,1-0.9c0.4-0.2,0.8-0.3,1.3-0.3c0.4,0,0.7,0.1,1.1,0.2
			c0.4,0.1,0.6,0.3,0.8,0.5c0.2,0.2,0.4,0.5,0.5,0.9c0.1,0.4,0.2,0.8,0.2,1.3v4.7h-1.3v-4.7c0-0.3,0-0.6-0.1-0.8
			c-0.1-0.2-0.2-0.4-0.3-0.6c-0.1-0.2-0.3-0.2-0.5-0.3c-0.2-0.1-0.4-0.1-0.7-0.1c-0.4,0-0.8,0.1-1.1,0.3c-0.3,0.2-0.6,0.5-0.8,0.8
			v5.3h-1.3v-7.4H99.7z"/>
		<path fill="#2A343F" d="M110.3,32.2c-0.5,0-1-0.1-1.4-0.3c-0.4-0.2-0.8-0.4-1.1-0.7c-0.3-0.3-0.6-0.7-0.7-1.1s-0.3-0.9-0.3-1.4
			v-0.3c0-0.6,0.1-1.1,0.3-1.6c0.2-0.5,0.4-0.9,0.8-1.2c0.4-0.3,0.7-0.6,1.1-0.7s0.8-0.3,1.2-0.3c0.5,0,1,0.1,1.4,0.3
			c0.4,0.2,0.7,0.4,1,0.8c0.3,0.4,0.5,0.7,0.6,1.2c0.1,0.5,0.2,0.9,0.2,1.4v0.6H108c0,0.3,0.1,0.7,0.2,1c0.1,0.3,0.3,0.6,0.5,0.8
			c0.2,0.2,0.4,0.4,0.7,0.5c0.3,0.1,0.6,0.2,0.9,0.2c0.5,0,0.9-0.1,1.2-0.3c0.3-0.2,0.6-0.4,0.9-0.7l0.8,0.6
			c-0.1,0.2-0.3,0.4-0.5,0.5c-0.2,0.1-0.4,0.3-0.6,0.5c-0.2,0.2-0.5,0.2-0.8,0.3C111,32.4,110.6,32.2,110.3,32.2z M110.1,25.6
			c-0.3,0-0.5,0-0.7,0.1c-0.2,0.1-0.4,0.2-0.6,0.4c-0.2,0.2-0.3,0.4-0.5,0.7c-0.2,0.3-0.2,0.6-0.3,0.9h4v-0.1c0-0.2-0.1-0.5-0.1-0.7
			c0-0.2-0.2-0.5-0.4-0.6c-0.2-0.1-0.3-0.3-0.6-0.5C110.6,25.6,110.4,25.6,110.1,25.6z"/>
		<path fill="#2A343F" d="M129.9,26.7h-6.1v-1.1h6.1V26.7z M129.9,29.6h-6.1v-1.1h6.1V29.6z"/>
		<path fill="#2A343F" d="M143.6,22.9v1.8h2.8v1h-2.8v4c0,0.3,0,0.5,0.1,0.7c0.1,0.2,0.2,0.3,0.3,0.4c0.1,0.1,0.3,0.2,0.4,0.2
			s0.3,0.1,0.5,0.1c0.1,0,0.3,0,0.4,0c0.1,0,0.3,0,0.4-0.1c0.1-0.1,0.3,0,0.4-0.1s0.2,0,0.3-0.1l0.2,0.9c-0.1,0.1-0.2,0.1-0.4,0.2
			c-0.2,0.1-0.3,0.1-0.5,0.1c-0.2,0-0.4,0.1-0.6,0.1c-0.2,0-0.4,0-0.6,0c-0.3,0-0.6,0-0.9-0.1c-0.3-0.1-0.5-0.2-0.7-0.4
			c-0.2-0.2-0.4-0.5-0.5-0.8c-0.1-0.3-0.2-0.7-0.2-1.2v-4h-1.9v-1h1.9v-1.8h1.4V22.9z"/>
		<path fill="#2A343F" d="M148.7,28.3c0-0.5,0.1-1,0.2-1.5s0.4-0.9,0.7-1.2c0.3-0.3,0.6-0.6,1.1-0.8c0.5-0.2,0.9-0.3,1.4-0.3
			s1,0.1,1.4,0.3c0.4,0.2,0.8,0.5,1.1,0.8c0.3,0.3,0.5,0.7,0.7,1.2c0.2,0.5,0.2,1,0.2,1.5v0.2c0,0.5-0.1,1-0.2,1.5
			c-0.1,0.5-0.4,0.9-0.7,1.2c-0.3,0.3-0.6,0.6-1.1,0.8s-0.9,0.3-1.4,0.3s-1-0.1-1.4-0.3c-0.4-0.2-0.8-0.5-1.1-0.8
			c-0.3-0.3-0.5-0.7-0.7-1.2c-0.2-0.5-0.2-1-0.2-1.5V28.3z M149.9,28.4c0,0.4,0,0.7,0.1,1c0.1,0.3,0.2,0.6,0.4,0.9
			c0.2,0.3,0.4,0.4,0.7,0.6c0.3,0.2,0.6,0.2,0.9,0.2s0.7-0.1,0.9-0.2c0.2-0.1,0.5-0.3,0.7-0.6c0.2-0.3,0.3-0.5,0.4-0.9
			s0.1-0.7,0.1-1v-0.2c0-0.4,0-0.7-0.1-1c-0.1-0.3-0.2-0.6-0.4-0.9c-0.2-0.3-0.4-0.5-0.7-0.6c-0.3-0.1-0.6-0.2-0.9-0.2
			s-0.7,0.1-0.9,0.2c-0.2,0.1-0.5,0.3-0.7,0.6c-0.2,0.3-0.3,0.5-0.4,0.9c-0.1,0.4-0.1,0.7-0.1,1V28.4z"/>
		<path fill="#2A343F" d="M163.7,28.4c0,0.5-0.1,1-0.2,1.5s-0.3,0.9-0.6,1.2c-0.3,0.3-0.6,0.6-0.9,0.8c-0.3,0.2-0.8,0.3-1.2,0.3
			c-0.5,0-0.8-0.1-1.2-0.2s-0.6-0.4-0.9-0.6V35h-1.3V24.7h1.2l0.1,0.8c0.2-0.3,0.5-0.5,0.9-0.7c0.4-0.2,0.8-0.2,1.2-0.2
			c0.5,0,0.9,0.1,1.3,0.3c0.4,0.2,0.7,0.4,0.9,0.8c0.2,0.4,0.4,0.7,0.6,1.2c0.2,0.5,0.2,1,0.2,1.5l0,0H163.7z M162.4,28.3
			c0-0.4,0-0.7-0.1-1c-0.1-0.3-0.2-0.6-0.4-0.9c-0.2-0.3-0.4-0.4-0.6-0.6c-0.2-0.2-0.6-0.2-0.9-0.2c-0.4,0-0.7,0.1-1,0.3
			c-0.3,0.2-0.5,0.4-0.7,0.7v3.6c0.2,0.3,0.4,0.5,0.7,0.7c0.3,0.2,0.6,0.3,1,0.3s0.7-0.1,0.9-0.2c0.2-0.1,0.5-0.3,0.6-0.6
			c0.1-0.3,0.3-0.5,0.4-0.9c0.1-0.4,0.1-0.7,0.1-1V28.3z"/>
		<path fill="#2A343F" d="M180.5,28.4c0,0.5-0.1,1-0.199,1.5s-0.301,0.9-0.6,1.2c-0.301,0.3-0.601,0.6-0.9,0.8
			c-0.301,0.2-0.801,0.3-1.2,0.3c-0.5,0-0.8-0.1-1.2-0.2s-0.6-0.4-0.9-0.6V35h-1.299V24.7h1.199l0.1,0.8c0.201-0.3,0.5-0.5,0.9-0.7
			c0.4-0.2,0.801-0.2,1.2-0.2c0.5,0,0.899,0.1,1.3,0.3c0.4,0.2,0.7,0.4,0.9,0.8c0.199,0.4,0.4,0.7,0.6,1.2c0.2,0.5,0.2,1,0.2,1.5
			l0,0H180.5z M179.201,28.3c0-0.4,0-0.7-0.101-1c-0.101-0.3-0.2-0.6-0.399-0.9c-0.201-0.3-0.4-0.4-0.601-0.6
			c-0.2-0.2-0.601-0.2-0.899-0.2c-0.4,0-0.701,0.1-1,0.3c-0.301,0.2-0.5,0.4-0.701,0.7v3.6c0.201,0.3,0.4,0.5,0.701,0.7
			c0.299,0.2,0.6,0.3,1,0.3c0.399,0,0.699-0.1,0.899-0.2s0.5-0.3,0.601-0.6c0.1-0.3,0.299-0.5,0.399-0.9s0.101-0.7,0.101-1V28.3z"/>
		<path fill="#2A343F" d="M187.5,32.1c-0.1-0.1-0.1-0.2-0.1-0.4c0-0.2-0.1-0.3-0.1-0.4c-0.1,0.1-0.301,0.2-0.4,0.4
			c-0.1,0.2-0.3,0.2-0.5,0.3c-0.199,0.1-0.4,0.2-0.6,0.2c-0.2,0-0.4,0.1-0.7,0.1c-0.399,0-0.7-0.1-1.101-0.2
			c-0.399-0.1-0.6-0.3-0.799-0.5c-0.201-0.2-0.4-0.4-0.5-0.7c-0.101-0.3-0.201-0.6-0.201-0.9c0-0.4,0.101-0.8,0.201-1.1
			c0.1-0.3,0.399-0.6,0.699-0.8c0.301-0.2,0.7-0.4,1.1-0.5c0.4-0.1,0.9-0.2,1.4-0.2h1.4V27c0-0.2,0-0.4-0.1-0.6
			c-0.101-0.2-0.201-0.3-0.301-0.5c-0.1-0.2-0.3-0.2-0.6-0.3c-0.301-0.1-0.5-0.1-0.7-0.1c-0.3,0-0.5,0-0.7,0.1
			c-0.199,0.1-0.4,0.1-0.5,0.3c-0.1,0.2-0.199,0.2-0.3,0.4C184,26.5,184,26.6,184,26.7h-1.299c0-0.3,0.1-0.5,0.199-0.8
			c0.1-0.3,0.301-0.5,0.6-0.7c0.301-0.2,0.601-0.4,0.9-0.5c0.301-0.1,0.801-0.2,1.2-0.2s0.8,0.1,1.2,0.2c0.4,0.1,0.699,0.3,0.9,0.5
			c0.199,0.2,0.5,0.5,0.6,0.8s0.199,0.7,0.199,1.1v3.4c0,0.2,0,0.5,0.101,0.8c0.101,0.3,0.101,0.5,0.2,0.7v0.1H187.5z M185.201,31.1
			c0.199,0,0.5,0,0.699-0.1c0.2-0.1,0.4-0.1,0.6-0.3c0.201-0.2,0.301-0.2,0.5-0.4c0.201-0.2,0.201-0.3,0.301-0.4v-1.5h-1.2
			c-0.7,0-1.3,0.1-1.7,0.3c-0.4,0.2-0.6,0.6-0.6,1c0,0.2,0,0.4,0.1,0.5c0.1,0.1,0.2,0.3,0.301,0.4c0.1,0.1,0.299,0.2,0.5,0.3
			C184.9,31,185,31.1,185.201,31.1z"/>
		<path fill="#2A343F" d="M191.201,24.7H195V31h2.4v1.1h-6.199V31h2.5v-5.2h-2.5V24.7z M193.6,22.7c0-0.2,0.101-0.4,0.2-0.5
			c0.1-0.1,0.3-0.2,0.6-0.2c0.301,0,0.4,0.1,0.6,0.2c0.101,0.1,0.201,0.3,0.201,0.5c0,0.2-0.101,0.4-0.201,0.5
			c-0.1,0.1-0.299,0.2-0.6,0.2c-0.3,0-0.4-0.1-0.6-0.2C193.6,23.1,193.6,22.9,193.6,22.7z"/>
		<path fill="#2A343F" d="M204.3,24.5c0.1,0,0.199,0,0.4,0c0.199,0,0.199,0,0.399,0c0.101,0,0.2,0,0.3,0.1c0.1,0,0.2,0,0.2,0.1
			l-0.2,1.2c-0.199-0.1-0.5-0.1-0.699-0.1c-0.201,0-0.5,0-0.701,0c-0.6,0-1.1,0.1-1.399,0.4c-0.399,0.3-0.601,0.6-0.8,1.1V32H200.5
			v-7.4h1.201l0.1,1.2c0.3-0.4,0.699-0.7,1.1-1C203.3,24.6,203.701,24.5,204.3,24.5z"/>
		<path fill="#2A343F" d="M208,24.7h3.801V31h2.4v1.1H208V31h2.5v-5.2H208V24.7z M210.4,22.7c0-0.2,0.1-0.4,0.2-0.5
			c0.101-0.1,0.3-0.2,0.601-0.2c0.299,0,0.399,0.1,0.6,0.2C212,22.3,212,22.5,212,22.7c0,0.2-0.1,0.4-0.199,0.5
			c-0.1,0.1-0.301,0.2-0.6,0.2c-0.301,0-0.4-0.1-0.601-0.2C210.4,23.1,210.4,22.9,210.4,22.7z"/>
		<path fill="#2A343F" d="M217.4,24.7l0.1,1.1c0.301-0.4,0.601-0.7,1-0.9c0.4-0.2,0.801-0.3,1.301-0.3c0.4,0,0.699,0.1,1.1,0.2
			c0.301,0.1,0.6,0.3,0.801,0.5c0.199,0.2,0.399,0.5,0.5,0.9c0.1,0.4,0.199,0.8,0.199,1.3v4.7h-1.3v-4.7c0-0.3,0-0.6-0.101-0.8
			c-0.1-0.2-0.199-0.4-0.299-0.6c-0.101-0.1-0.301-0.2-0.5-0.3c-0.201-0.1-0.4-0.1-0.701-0.1c-0.399,0-0.799,0.1-1.1,0.3
			c-0.3,0.2-0.6,0.5-0.8,0.8v5.3h-1.3v-7.4H217.4z"/>
		<path fill="#2A343F" d="M224.4,28.3c0-0.6,0.1-1.1,0.2-1.5c0.101-0.5,0.3-0.9,0.601-1.2c0.299-0.3,0.6-0.6,0.899-0.8
			c0.3-0.2,0.8-0.3,1.2-0.3c0.5,0,0.9,0.1,1.199,0.2c0.301,0.2,0.601,0.4,0.9,0.7l0.1-0.8h1.101v7.2c0,0.5-0.101,0.9-0.2,1.3
			c-0.199,0.4-0.4,0.7-0.6,1c-0.301,0.3-0.6,0.5-1,0.6C228.4,34.8,228,35,227.5,35c-0.199,0-0.399,0-0.699-0.1
			c-0.301-0.1-0.5-0.1-0.7-0.2c-0.3-0.1-0.5-0.2-0.7-0.4c-0.199-0.2-0.4-0.4-0.6-0.6l0.699-0.8c0.201,0.2,0.301,0.3,0.5,0.5
			c0.201,0.2,0.301,0.2,0.5,0.3c0.201,0.1,0.301,0.1,0.5,0.2c0.201,0.1,0.301,0.1,0.5,0.1c0.301,0,0.601,0,0.801-0.1
			c0.199-0.1,0.4-0.2,0.6-0.4c0.2-0.2,0.301-0.4,0.4-0.6c0.1-0.2,0.1-0.5,0.1-0.8v-0.6c-0.199,0.3-0.5,0.5-0.9,0.6
			c-0.299,0.1-0.699,0.2-1.199,0.2s-0.9-0.1-1.2-0.3s-0.7-0.5-0.899-0.8c-0.301-0.3-0.4-0.7-0.601-1.2s-0.2-1-0.2-1.5V28.3
			L224.4,28.3z M225.701,28.4c0,0.4,0,0.7,0.1,1c0.1,0.3,0.199,0.6,0.4,0.9c0.199,0.2,0.399,0.4,0.6,0.6c0.199,0.2,0.6,0.2,0.9,0.2
			c0.199,0,0.399,0,0.6-0.1c0.199-0.1,0.3-0.1,0.5-0.2c0.1-0.1,0.3-0.2,0.4-0.3c0.1-0.1,0.199-0.3,0.299-0.4v-3.4
			c-0.1-0.2-0.199-0.3-0.299-0.4c-0.101-0.1-0.201-0.2-0.4-0.3c-0.2-0.1-0.301-0.2-0.5-0.2c-0.2,0-0.4-0.1-0.6-0.1
			c-0.4,0-0.701,0.1-0.9,0.2c-0.301,0.1-0.5,0.3-0.6,0.6c-0.201,0.2-0.301,0.5-0.4,0.9C225.701,27.7,225.701,28.1,225.701,28.4
			L225.701,28.4z"/>
		<path fill="#2A343F" d="M237.6,28.1c0,0.7-0.101,1.3-0.2,1.8c-0.1,0.6-0.199,1.1-0.4,1.6c-0.199,0.5-0.399,0.9-0.6,1.3
			c-0.199,0.4-0.5,0.8-0.699,1.1c-0.201,0.3-0.5,0.6-0.801,0.8c-0.3,0.2-0.5,0.4-0.699,0.5l-0.301-0.8c0.301-0.2,0.6-0.5,0.801-0.9
			c0.299-0.4,0.5-0.8,0.799-1.4c0.201-0.5,0.4-1.1,0.5-1.8c0.101-0.7,0.201-1.5,0.201-2.3l0,0c0-0.9-0.101-1.6-0.201-2.3
			c-0.1-0.7-0.299-1.3-0.6-1.8c-0.199-0.5-0.5-1-0.8-1.4s-0.5-0.7-0.8-0.9l0.3-0.8c0.2,0.1,0.5,0.3,0.7,0.5c0.3,0.2,0.5,0.5,0.8,0.8
			c0.2,0.3,0.5,0.7,0.7,1.1c0.199,0.4,0.4,0.9,0.6,1.3c0.2,0.4,0.301,1,0.4,1.6C237.6,26.8,237.6,27.4,237.6,28.1L237.6,28.1z"/>
	</g>
</g>
<g>
	<path d="M11.7,58.8H7.6v4.4H6.3v-10h6.1v1.1H7.6v3.4h4.1V58.8z"/>
	<path d="M17.9,63.4c-0.5,0-1-0.101-1.4-0.301C16.1,62.9,15.7,62.7,15.4,62.4c-0.3-0.301-0.6-0.7-0.7-1.101
		c-0.1-0.399-0.3-0.899-0.3-1.4v-0.3c0-0.6,0.1-1.1,0.3-1.6c0.2-0.5,0.4-0.9,0.8-1.2c0.3-0.3,0.7-0.6,1.1-0.7s0.8-0.3,1.2-0.3
		c0.5,0,1,0.1,1.4,0.3c0.4,0.2,0.7,0.4,1,0.8c0.3,0.3,0.5,0.7,0.6,1.2c0.1,0.5,0.2,0.9,0.2,1.4v0.6h-5.3c0,0.301,0.1,0.7,0.2,1
		C16,61.4,16.2,61.7,16.4,61.9c0.2,0.199,0.4,0.399,0.7,0.5c0.3,0.1,0.6,0.199,0.9,0.199c0.5,0,0.9-0.1,1.2-0.3
		c0.3-0.2,0.6-0.399,0.9-0.7l0.8,0.601c-0.1,0.2-0.3,0.399-0.5,0.5c-0.2,0.2-0.4,0.3-0.6,0.5c-0.2,0.2-0.5,0.2-0.8,0.3
		C18.6,63.3,18.2,63.4,17.9,63.4z M17.7,56.7c-0.3,0-0.5,0-0.7,0.1c-0.2,0.1-0.4,0.2-0.6,0.4c-0.2,0.2-0.3,0.4-0.5,0.7
		c-0.1,0.3-0.2,0.6-0.3,0.9h4v-0.1c0-0.2-0.1-0.5-0.1-0.7s-0.2-0.5-0.4-0.6c-0.2-0.1-0.3-0.3-0.6-0.5C18.2,56.7,18,56.7,17.7,56.7z"
		/>
	<path d="M23.6,55.8v0.7c0.2-0.3,0.3-0.5,0.6-0.6c0.3-0.1,0.5-0.2,0.9-0.2c0.7,0,1.1,0.3,1.4,0.8c0.1-0.2,0.3-0.4,0.6-0.6
		c0.2-0.1,0.5-0.2,0.9-0.2c0.5,0,1,0.2,1.3,0.5c0.3,0.3,0.4,0.8,0.4,1.5v5.5h-1.2v-5.5c0-0.6-0.3-0.9-0.9-0.9c-0.2,0-0.3,0-0.4,0.1
		C27.1,57,27,57,26.9,57.1s-0.1,0.2-0.2,0.2c0,0.1-0.1,0.2-0.1,0.3v5.7h-1.2v-5.5c0-0.3-0.1-0.5-0.2-0.7c-0.1-0.2-0.3-0.2-0.6-0.2
		c-0.3,0-0.5,0.1-0.6,0.2s-0.3,0.2-0.3,0.4v5.9h-1.2V56h1.1V55.8z"/>
	<path d="M36.3,63.2c-0.1-0.101-0.1-0.2-0.1-0.4c0-0.1-0.1-0.3-0.1-0.399C36,62.5,35.8,62.6,35.7,62.8c-0.1,0.2-0.3,0.2-0.5,0.3
		c-0.2,0.101-0.4,0.2-0.6,0.2c-0.2,0-0.4,0.101-0.7,0.101c-0.4,0-0.7-0.101-1.1-0.2c-0.4-0.101-0.6-0.3-0.8-0.5s-0.4-0.4-0.5-0.7
		s-0.2-0.6-0.2-0.9c0-0.399,0.1-0.8,0.2-1.1s0.4-0.6,0.7-0.8c0.3-0.2,0.7-0.4,1.1-0.5c0.4-0.1,0.9-0.2,1.4-0.2H36v-0.6
		c0-0.2,0-0.4-0.1-0.6c-0.1-0.2-0.2-0.3-0.3-0.5c-0.2-0.1-0.3-0.2-0.6-0.3s-0.5-0.1-0.7-0.1c-0.3,0-0.5,0-0.7,0.1
		c-0.2,0.1-0.4,0.1-0.5,0.3C33,57,32.9,57,32.8,57.2c-0.1,0.1-0.1,0.3-0.1,0.4h-1.3c0-0.3,0.1-0.5,0.2-0.8c0.1-0.3,0.3-0.5,0.6-0.7
		c0.3-0.2,0.6-0.4,0.9-0.5c0.3-0.1,0.8-0.2,1.2-0.2c0.4,0,0.8,0.1,1.2,0.2s0.7,0.3,0.9,0.5c0.3,0.2,0.5,0.5,0.6,0.8
		c0.1,0.3,0.2,0.7,0.2,1.1v3.4c0,0.199,0,0.5,0.1,0.8c0,0.3,0.1,0.5,0.2,0.7V63h-1.2V63.2z M34,62.3c0.2,0,0.5,0,0.7-0.1
		c0.2-0.101,0.4-0.101,0.6-0.3c0.2-0.2,0.3-0.2,0.5-0.4c0.1-0.1,0.2-0.3,0.3-0.4v-1.5h-1.2c-0.7,0-1.3,0.1-1.7,0.3
		c-0.4,0.2-0.6,0.6-0.6,1c0,0.199,0,0.399,0.1,0.5c0.1,0.1,0.2,0.3,0.3,0.399c0.1,0.101,0.3,0.2,0.5,0.3
		C33.7,62.2,33.8,62.3,34,62.3z"/>
	<path d="M40,52.7h3.8V62.1h2.4V63.2H40V62.1h2.5v-8.3H40V52.7z"/>
	<path d="M51.5,63.4c-0.5,0-1-0.101-1.4-0.301C49.7,62.9,49.3,62.7,49,62.4c-0.3-0.301-0.6-0.7-0.7-1.101C48.2,60.9,48,60.4,48,59.9
		v-0.3c0-0.6,0.1-1.1,0.3-1.6c0.2-0.5,0.4-0.9,0.8-1.2c0.3-0.3,0.7-0.6,1.1-0.7c0.4-0.1,0.8-0.3,1.2-0.3c0.5,0,1,0.1,1.4,0.3
		c0.4,0.2,0.7,0.4,1,0.8c0.3,0.3,0.5,0.7,0.6,1.2s0.2,0.9,0.2,1.4v0.6h-5.3c0,0.301,0.1,0.7,0.2,1C49.6,61.4,49.8,61.7,50,61.9
		c0.2,0.199,0.4,0.399,0.7,0.5c0.3,0.1,0.6,0.199,0.9,0.199c0.5,0,0.9-0.1,1.2-0.3c0.3-0.2,0.6-0.399,0.9-0.7l0.8,0.601
		c-0.1,0.2-0.3,0.399-0.5,0.5c-0.2,0.2-0.4,0.3-0.6,0.5c-0.2,0.2-0.5,0.2-0.8,0.3C52.2,63.3,51.8,63.4,51.5,63.4z M51.3,56.7
		c-0.3,0-0.5,0-0.7,0.1c-0.2,0.1-0.4,0.2-0.6,0.4c-0.2,0.2-0.3,0.4-0.5,0.7c-0.1,0.3-0.2,0.6-0.3,0.9h4v-0.1c0-0.2-0.1-0.5-0.1-0.7
		s-0.2-0.5-0.4-0.6c-0.2-0.1-0.3-0.3-0.6-0.5C51.8,56.7,51.6,56.7,51.3,56.7z"/>
</g>
<g>
	<path d="M7.6,73.2l1.6,5l1.8-5h1.6v10h-1.2v-4l0.1-4.2l-1.8,5.4H8.8l-1.7-5.2l0.1,4v4H6v-10H7.6z"/>
	<path d="M19.5,83.1C19.4,83,19.4,82.9,19.4,82.7c0-0.101-0.1-0.3-0.1-0.4c-0.1,0.101-0.3,0.2-0.4,0.4s-0.3,0.2-0.5,0.3
		c-0.2,0.1-0.4,0.2-0.6,0.2c-0.2,0-0.4,0.1-0.7,0.1c-0.4,0-0.7-0.1-1.1-0.2c-0.4-0.1-0.6-0.3-0.8-0.5C15,82.4,14.8,82.2,14.7,81.9
		C14.6,81.6,14.5,81.3,14.5,81c0-0.4,0.1-0.8,0.2-1.1c0.1-0.301,0.4-0.601,0.7-0.801c0.3-0.199,0.7-0.399,1.1-0.5
		c0.4-0.1,0.9-0.199,1.4-0.199h1.4V78c0-0.2,0-0.4-0.1-0.6c-0.1-0.2-0.2-0.301-0.3-0.5c-0.2-0.101-0.3-0.2-0.6-0.301
		c-0.3-0.1-0.5-0.1-0.7-0.1c-0.3,0-0.5,0-0.7,0.1C16.7,76.7,16.5,76.7,16.4,76.9C16.3,77.1,16.2,77.1,16.1,77.3
		C16,77.4,16,77.6,16,77.7h-1.3c0-0.3,0.1-0.5,0.2-0.8c0.1-0.301,0.3-0.5,0.6-0.7s0.6-0.4,0.9-0.5c0.3-0.101,0.8-0.2,1.2-0.2
		s0.8,0.1,1.2,0.2c0.4,0.1,0.7,0.3,0.9,0.5c0.3,0.2,0.5,0.5,0.6,0.8c0.1,0.3,0.2,0.7,0.2,1.1v3.4c0,0.2,0,0.5,0.1,0.8
		c0,0.3,0.1,0.5,0.2,0.7v0.1H19.5z M17.2,82.1c0.2,0,0.5,0,0.7-0.1c0.2-0.1,0.4-0.1,0.6-0.3s0.3-0.2,0.5-0.4
		c0.1-0.1,0.2-0.3,0.3-0.399v-1.5h-1.2c-0.7,0-1.3,0.1-1.7,0.3s-0.6,0.6-0.6,1c0,0.2,0,0.399,0.1,0.5c0.1,0.1,0.2,0.3,0.3,0.399
		c0.1,0.101,0.3,0.2,0.5,0.301C16.9,82,17,82.1,17.2,82.1z"/>
	<path d="M23.2,72.6H27V82h2.4v1.1h-6.2V82h2.5v-8.3h-2.5V72.6z"/>
	<path d="M34.7,83.2c-0.5,0-1-0.101-1.4-0.3c-0.4-0.2-0.8-0.4-1.1-0.7c-0.3-0.3-0.6-0.7-0.7-1.101C31.4,80.7,31.2,80.2,31.2,79.7
		v-0.3c0-0.601,0.1-1.101,0.3-1.601s0.4-0.899,0.8-1.2c0.3-0.3,0.7-0.6,1.1-0.699c0.4-0.101,0.8-0.301,1.2-0.301
		c0.5,0,1,0.101,1.4,0.301c0.4,0.199,0.7,0.399,1,0.8c0.3,0.3,0.5,0.7,0.6,1.2s0.2,0.899,0.2,1.399V79.9h-5.3c0,0.3,0.1,0.699,0.2,1
		c0.1,0.3,0.3,0.6,0.5,0.8c0.2,0.2,0.4,0.399,0.7,0.5c0.3,0.1,0.6,0.2,0.9,0.2c0.5,0,0.9-0.101,1.2-0.301
		c0.3-0.199,0.6-0.399,0.9-0.699l0.8,0.6c-0.1,0.2-0.3,0.4-0.5,0.5c-0.2,0.2-0.4,0.3-0.6,0.5c-0.2,0.2-0.6,0-0.9,0.1
		C35.4,83.2,35,83.2,34.7,83.2z M34.5,76.6c-0.3,0-0.5,0-0.7,0.101c-0.2,0.1-0.4,0.2-0.6,0.399c-0.2,0.2-0.3,0.4-0.5,0.7
		c-0.1,0.3-0.2,0.601-0.3,0.9h4V78.6c0-0.199-0.1-0.5-0.1-0.699c0-0.2-0.2-0.5-0.4-0.601c-0.2-0.1-0.3-0.3-0.6-0.5
		C35,76.6,34.8,76.6,34.5,76.6z"/>
</g>
<g>
	<path d="M135.3,53.3l1.6,5l1.8-5h1.6v10H139v-4l0.1-4.2l-1.8,5.4h-0.7l-1.7-5.2l0.1,4v4h-1.2v-10H135.3z"/>
	<path d="M147.1,63.2C147,63.1,147,63,147,62.8c0-0.1-0.1-0.3-0.1-0.399c-0.1,0.1-0.3,0.199-0.4,0.399s-0.3,0.2-0.5,0.3
		c-0.2,0.101-0.4,0.2-0.6,0.2c-0.2,0-0.4,0.101-0.7,0.101c-0.4,0-0.7-0.101-1.1-0.2c-0.4-0.101-0.6-0.3-0.8-0.5
		c-0.2-0.2-0.4-0.4-0.5-0.7c-0.1-0.3-0.2-0.6-0.2-0.9c0-0.399,0.1-0.8,0.2-1.1c0.1-0.3,0.4-0.6,0.7-0.8c0.3-0.2,0.7-0.4,1.1-0.5
		c0.4-0.1,0.9-0.2,1.4-0.2h1.4v-0.6c0-0.2,0-0.4-0.1-0.6c-0.1-0.2-0.2-0.3-0.3-0.5c-0.2-0.1-0.3-0.2-0.6-0.3
		c-0.3-0.1-0.5-0.1-0.7-0.1c-0.3,0-0.5,0-0.7,0.1s-0.4,0.1-0.5,0.3c-0.1,0.2-0.2,0.2-0.3,0.4c-0.1,0.1-0.1,0.3-0.1,0.4h-1.3
		c0-0.3,0.1-0.5,0.2-0.8c0.1-0.3,0.3-0.5,0.6-0.7c0.3-0.2,0.6-0.4,0.9-0.5s0.8-0.2,1.2-0.2c0.4,0,0.8,0.1,1.2,0.2s0.7,0.3,0.9,0.5
		c0.3,0.2,0.5,0.5,0.6,0.8c0.1,0.3,0.2,0.7,0.2,1.1v3.4c0,0.199,0,0.5,0.1,0.8c0,0.3,0.1,0.5,0.2,0.7V63h-1.3V63.2z M144.9,62.3
		c0.2,0,0.5,0,0.7-0.1c0.2-0.101,0.4-0.101,0.6-0.3c0.2-0.2,0.3-0.2,0.5-0.4c0.1-0.1,0.2-0.3,0.3-0.4v-1.5h-1.2
		c-0.7,0-1.3,0.1-1.7,0.3s-0.6,0.6-0.6,1c0,0.199,0,0.399,0.1,0.5c0.1,0.1,0.2,0.3,0.3,0.399c0.1,0.101,0.3,0.2,0.5,0.3
		C144.6,62.2,144.7,62.3,144.9,62.3z"/>
	<path d="M150.9,52.7h3.8V62.1h2.4V63.2h-6.2V62.1h2.5v-8.3h-2.5V52.7z"/>
	<path d="M162.4,63.4c-0.5,0-1-0.101-1.4-0.301c-0.4-0.199-0.8-0.399-1.1-0.699c-0.3-0.301-0.6-0.7-0.7-1.101
		c-0.1-0.399-0.3-0.899-0.3-1.4v-0.3c0-0.6,0.1-1.1,0.3-1.6c0.2-0.5,0.4-0.9,0.8-1.2c0.3-0.3,0.7-0.6,1.1-0.7s0.8-0.3,1.2-0.3
		c0.5,0,1,0.1,1.4,0.3c0.4,0.2,0.7,0.4,1,0.8c0.3,0.3,0.5,0.7,0.6,1.2c0.1,0.5,0.2,0.9,0.2,1.4v0.6h-5.3c0,0.301,0.1,0.7,0.2,1
		c0.1,0.301,0.3,0.601,0.5,0.801c0.2,0.199,0.4,0.399,0.7,0.5c0.3,0.1,0.6,0.199,0.9,0.199c0.5,0,0.9-0.1,1.2-0.3
		c0.3-0.2,0.6-0.399,0.9-0.7l0.8,0.601c-0.1,0.2-0.3,0.399-0.5,0.5c-0.2,0.2-0.4,0.3-0.6,0.5c-0.2,0.2-0.5,0.2-0.8,0.3
		C163,63.3,162.7,63.4,162.4,63.4z M162.2,56.7c-0.3,0-0.5,0-0.7,0.1c-0.2,0.1-0.4,0.2-0.6,0.4c-0.2,0.2-0.3,0.4-0.5,0.7
		c-0.1,0.3-0.2,0.6-0.3,0.9h4v-0.1c0-0.2-0.1-0.5-0.1-0.7s-0.2-0.5-0.4-0.6c-0.2-0.1-0.3-0.3-0.6-0.5
		C162.7,56.7,162.5,56.7,162.2,56.7z"/>
</g>
<g>
	<path d="M139.4,78.7h-4.1V83.1H134v-10h6.1V74.2h-4.8V77.6h4.1V78.7L139.4,78.7z"/>
	<path d="M145.5,83.2c-0.5,0-1-0.101-1.4-0.3c-0.4-0.2-0.8-0.4-1.1-0.7s-0.6-0.7-0.7-1.101C142.2,80.7,142,80.2,142,79.7v-0.3
		c0-0.601,0.1-1.101,0.3-1.601c0.2-0.5,0.4-0.899,0.8-1.2c0.3-0.3,0.7-0.6,1.1-0.699c0.4-0.101,0.8-0.301,1.2-0.301
		c0.5,0,1,0.101,1.4,0.301c0.4,0.199,0.7,0.399,1,0.8c0.3,0.3,0.5,0.7,0.6,1.2s0.2,0.899,0.2,1.399V79.9h-5.3c0,0.3,0.1,0.699,0.2,1
		c0.1,0.3,0.3,0.6,0.5,0.8s0.4,0.399,0.7,0.5c0.3,0.1,0.6,0.2,0.9,0.2c0.5,0,0.9-0.101,1.2-0.301c0.3-0.199,0.6-0.399,0.9-0.699
		l0.8,0.6c-0.1,0.2-0.3,0.4-0.5,0.5c-0.2,0.2-0.4,0.3-0.6,0.5c-0.2,0.2-0.5,0.2-0.8,0.3C146.2,83.2,145.9,83.2,145.5,83.2z
		 M145.4,76.6c-0.3,0-0.5,0-0.7,0.101c-0.2,0.1-0.4,0.2-0.6,0.399c-0.2,0.2-0.3,0.4-0.5,0.7c-0.1,0.3-0.2,0.601-0.3,0.9h4V78.6
		c0-0.199-0.1-0.5-0.1-0.699c0-0.2-0.2-0.5-0.4-0.601c-0.2-0.1-0.3-0.3-0.6-0.5C145.9,76.6,145.7,76.6,145.4,76.6z"/>
	<path d="M151.3,75.7v0.7c0.2-0.301,0.3-0.5,0.6-0.601c0.3-0.1,0.5-0.2,0.9-0.2c0.7,0,1.1,0.301,1.4,0.801
		c0.1-0.2,0.3-0.4,0.6-0.601c0.2-0.1,0.5-0.2,0.9-0.2c0.5,0,1,0.2,1.3,0.5c0.3,0.301,0.4,0.801,0.4,1.5v5.5h-1.2v-5.5
		c0-0.6-0.3-0.899-0.9-0.899c-0.2,0-0.3,0-0.4,0.1c-0.1,0.101-0.2,0.101-0.3,0.2s-0.1,0.2-0.2,0.2c0,0.1-0.1,0.2-0.1,0.3v5.7h-1.2
		v-5.5c0-0.3-0.1-0.5-0.2-0.7s-0.3-0.2-0.6-0.2c-0.3,0-0.5,0.101-0.6,0.2c-0.1,0.1-0.3,0.2-0.3,0.4V83.3h-1.2V75.9h1.1V75.7z"/>
	<path d="M163.9,83.1c-0.1-0.1-0.1-0.199-0.1-0.399c0-0.101-0.1-0.3-0.1-0.4c-0.1,0.101-0.3,0.2-0.4,0.4c-0.1,0.2-0.3,0.2-0.5,0.3
		c-0.2,0.1-0.4,0.2-0.6,0.2c-0.2,0-0.4,0.1-0.7,0.1c-0.4,0-0.7-0.1-1.1-0.2c-0.4-0.1-0.6-0.3-0.8-0.5
		c-0.2-0.199-0.4-0.399-0.5-0.699c-0.1-0.301-0.2-0.601-0.2-0.9c0-0.4,0.1-0.8,0.2-1.1c0.1-0.301,0.4-0.601,0.7-0.801
		c0.3-0.199,0.7-0.399,1.1-0.5c0.4-0.1,0.9-0.199,1.4-0.199h1.4V78c0-0.2,0-0.4-0.1-0.6c-0.1-0.2-0.2-0.301-0.3-0.5
		c-0.2-0.101-0.3-0.2-0.6-0.301c-0.3-0.1-0.5-0.1-0.7-0.1c-0.3,0-0.5,0-0.7,0.1c-0.2,0.101-0.4,0.101-0.5,0.301
		c-0.1,0.199-0.2,0.199-0.3,0.399c-0.1,0.101-0.1,0.3-0.1,0.4h-1.3c0-0.3,0.1-0.5,0.2-0.8c0.1-0.301,0.3-0.5,0.6-0.7
		c0.3-0.2,0.6-0.4,0.9-0.5c0.3-0.101,0.8-0.2,1.2-0.2s0.8,0.1,1.2,0.2c0.4,0.1,0.7,0.3,0.9,0.5c0.3,0.2,0.5,0.5,0.6,0.8
		c0.1,0.3,0.2,0.7,0.2,1.1v3.4c0,0.2,0,0.5,0.1,0.8c0,0.3,0.1,0.5,0.2,0.7v0.1H163.9z M161.7,82.1c0.2,0,0.5,0,0.7-0.1
		c0.2-0.1,0.4-0.1,0.6-0.3s0.3-0.2,0.5-0.4c0.1-0.1,0.2-0.3,0.3-0.399v-1.5h-1.2c-0.7,0-1.3,0.1-1.7,0.3s-0.6,0.6-0.6,1
		c0,0.2,0,0.399,0.1,0.5c0.1,0.1,0.2,0.3,0.3,0.399c0.1,0.101,0.3,0.2,0.5,0.301C161.4,82,161.5,82.1,161.7,82.1z"/>
	<path d="M167.7,72.6h3.799V82h2.4v1.1h-6.2V82h2.5v-8.3h-2.5V72.6z"/>
	<path d="M179.201,83.2c-0.5,0-1-0.101-1.4-0.3c-0.4-0.2-0.801-0.4-1.1-0.7C176.4,81.9,176.1,81.5,176,81.1
		c-0.1-0.399-0.299-0.899-0.299-1.399v-0.3c0-0.601,0.1-1.101,0.299-1.601c0.201-0.5,0.4-0.899,0.801-1.2
		c0.3-0.3,0.699-0.6,1.1-0.699c0.4-0.101,0.801-0.301,1.2-0.301c0.5,0,1,0.101,1.399,0.301c0.4,0.199,0.701,0.399,1,0.8
		c0.301,0.3,0.5,0.7,0.601,1.2s0.2,0.899,0.2,1.399V79.9H177c0,0.3,0.101,0.699,0.201,1c0.1,0.3,0.299,0.6,0.5,0.8
		c0.199,0.2,0.399,0.399,0.699,0.5c0.301,0.1,0.6,0.2,0.9,0.2c0.5,0,0.9-0.101,1.199-0.301C180.8,81.9,181.1,81.7,181.4,81.4
		l0.801,0.6c-0.101,0.2-0.301,0.4-0.5,0.5c-0.201,0.2-0.4,0.3-0.601,0.5s-0.5,0.2-0.8,0.3C179.8,83.2,179.5,83.2,179.201,83.2z
		 M179,76.6c-0.299,0-0.5,0-0.699,0.101c-0.2,0.1-0.4,0.2-0.6,0.399c-0.201,0.2-0.301,0.4-0.5,0.7C177.1,78.1,177,78.4,176.9,78.7h4
		V78.6c0-0.199-0.1-0.5-0.1-0.699c0-0.2-0.2-0.5-0.4-0.601c-0.199-0.1-0.3-0.3-0.6-0.5C179.5,76.6,179.3,76.6,179,76.6z"/>
</g>
<linearGradient id="SVGID_2_" gradientUnits="userSpaceOnUse" x1="-144.2002" y1="182.5996" x2="-81.5" y2="182.5996" gradientTransform="matrix(1 0 0 -1 206 242)">
	<stop  offset="0" style="stop-color:#FA8A9C"/>
	<stop  offset="0.1649" style="stop-color:#E696AE"/>
	<stop  offset="0.7323" style="stop-color:#A5BEE8"/>
	<stop  offset="1" style="stop-color:#8CCDFF"/>
</linearGradient>
<line fill="none" stroke="url(#SVGID_2_)" stroke-width="2" stroke-miterlimit="10" x1="61.8" y1="59.4" x2="124.5" y2="59.4"/>
<linearGradient id="SVGID_3_" gradientUnits="userSpaceOnUse" x1="-81.5005" y1="164.001" x2="-144.2007" y2="164.001" gradientTransform="matrix(1 0 0 -1 206 242)">
	<stop  offset="0" style="stop-color:#FA8A9C"/>
	<stop  offset="0.1649" style="stop-color:#E696AE"/>
	<stop  offset="0.7323" style="stop-color:#A5BEE8"/>
	<stop  offset="1" style="stop-color:#8CCDFF"/>
</linearGradient>
<line fill="none" stroke="url(#SVGID_3_)" stroke-width="2" stroke-miterlimit="10" x1="61.8" y1="78" x2="124.5" y2="78"/>
<g>
	<path d="M216.1,93l1.601,5l1.799-5h1.601v10h-1.2v-4l0.1-4.2l-1.799,5.4H217.5L215.8,95l0.1,4v4h-1.199V93H216.1z"/>
	<path d="M227.9,102.9c0-0.101-0.1-0.2-0.1-0.4c0-0.1-0.1-0.3-0.1-0.4c-0.101,0.101-0.301,0.2-0.4,0.4c-0.2,0.1-0.301,0.2-0.5,0.3
		c-0.2,0.101-0.4,0.2-0.6,0.2c-0.201,0-0.4,0.1-0.701,0.1c-0.399,0-0.699-0.1-1.1-0.199c-0.3-0.101-0.6-0.301-0.8-0.5
		c-0.2-0.2-0.399-0.4-0.5-0.7s-0.2-0.601-0.2-0.9c0-0.399,0.1-0.8,0.2-1.1c0.2-0.3,0.399-0.601,0.7-0.8c0.3-0.2,0.699-0.4,1.1-0.5
		c0.4-0.101,0.9-0.2,1.4-0.2h1.4V97.6c0-0.199,0-0.399-0.101-0.6s-0.2-0.3-0.3-0.5c-0.2-0.1-0.301-0.2-0.6-0.3
		C226.5,96.1,226.201,96.1,226,96.1c-0.299,0-0.5,0-0.699,0.101c-0.2,0.1-0.4,0.1-0.5,0.3s-0.2,0.2-0.301,0.4
		c-0.1,0.1-0.1,0.3-0.1,0.399h-1.3c0-0.3,0.101-0.5,0.2-0.8s0.3-0.5,0.6-0.7c0.301-0.2,0.6-0.399,0.9-0.5c0.4-0.1,0.8-0.2,1.199-0.2
		c0.4,0,0.801,0.101,1.201,0.2c0.399,0.101,0.699,0.3,0.899,0.5c0.3,0.2,0.5,0.5,0.601,0.8c0.1,0.301,0.199,0.7,0.199,1.101v3.399
		c0,0.2,0,0.5,0.1,0.801c0,0.3,0.101,0.5,0.201,0.699v0.101H227.9V102.9z M225.701,102c0.199,0,0.5,0,0.699-0.1
		c0.2-0.101,0.4-0.101,0.6-0.301c0.201-0.1,0.301-0.199,0.5-0.399c0.101-0.101,0.201-0.3,0.301-0.4v-1.5h-1.2
		c-0.7,0-1.3,0.101-1.7,0.3c-0.4,0.2-0.6,0.601-0.6,1c0,0.2,0,0.4,0.1,0.5c0.1,0.2,0.2,0.301,0.301,0.4c0.1,0.1,0.299,0.2,0.5,0.3
		C225.4,101.9,225.5,102,225.701,102z"/>
	<path d="M236.3,95.4c0.1,0,0.199,0,0.4,0c0.1,0,0.199,0,0.399,0c0.101,0,0.2,0,0.3,0.1c0.1,0,0.2,0,0.2,0.1l-0.2,1.2
		c-0.199-0.1-0.5-0.1-0.699-0.1c-0.201,0-0.5,0-0.701,0c-0.6,0-1.1,0.1-1.399,0.399C234.201,97.4,234,97.7,233.8,98.2v4.7H232.5
		v-7.4h1.201l0.1,1.2c0.3-0.4,0.699-0.7,1.1-1C235.3,95.5,235.8,95.4,236.3,95.4z"/>
	<path d="M244.701,95.4c0.1,0,0.199,0,0.399,0c0.101,0,0.2,0,0.399,0c0.101,0,0.201,0,0.301,0.1c0.1,0,0.199,0,0.199,0.1l-0.199,1.2
		c-0.2-0.1-0.5-0.1-0.7-0.1s-0.5,0-0.7,0c-0.6,0-1.1,0.1-1.4,0.399c-0.399,0.301-0.6,0.601-0.799,1.101v4.7H240.9v-7.4h1.2
		l0.101,1.2c0.299-0.4,0.699-0.7,1.1-1C243.701,95.5,244.201,95.4,244.701,95.4z"/>
	<path d="M248.5,95.5h3.801v6.3h2.4v1.101H248.5V101.8h2.5v-5.2h-2.5V95.5z M250.8,93.6c0-0.199,0.1-0.399,0.199-0.5
		C251.1,93,251.3,92.9,251.6,92.9S252,93,252.201,93.1c0.1,0.101,0.199,0.301,0.199,0.5c0,0.2-0.1,0.4-0.199,0.5
		c-0.101,0.101-0.301,0.2-0.601,0.2s-0.399-0.1-0.601-0.2C250.9,94,250.8,93.8,250.8,93.6z"/>
	<path d="M260,103.1c-0.5,0-1-0.1-1.399-0.3s-0.8-0.399-1.101-0.7c-0.299-0.3-0.6-0.699-0.699-1.1s-0.301-0.9-0.301-1.4v-0.3
		c0-0.6,0.101-1.1,0.301-1.6c0.199-0.5,0.4-0.9,0.8-1.2c0.3-0.3,0.7-0.6,1.101-0.7c0.399-0.2,0.799-0.3,1.199-0.3
		c0.5,0,1,0.1,1.4,0.3s0.699,0.4,1,0.8c0.3,0.301,0.5,0.7,0.6,1.2c0.1,0.4,0.2,0.9,0.2,1.4v0.6h-5.3c0,0.3,0.1,0.7,0.199,1
		c0.101,0.3,0.301,0.601,0.5,0.8c0.201,0.2,0.4,0.4,0.701,0.5c0.299,0.101,0.6,0.2,0.899,0.2c0.5,0,0.899-0.1,1.2-0.3
		c0.3-0.2,0.6-0.4,0.9-0.7L263,101.9c-0.1,0.199-0.299,0.399-0.5,0.5c-0.199,0.199-0.399,0.3-0.6,0.5
		c-0.199,0.199-0.5,0.199-0.8,0.3C260.701,103,260.3,103.1,260,103.1z M259.8,96.4c-0.301,0-0.5,0-0.7,0.1s-0.399,0.2-0.601,0.4
		C258.3,97.1,258.201,97.3,258,97.6c-0.1,0.301-0.199,0.601-0.299,0.9h4v-0.1c0-0.2-0.101-0.5-0.101-0.7
		c-0.101-0.2-0.2-0.5-0.399-0.601C261,97,260.9,96.8,260.6,96.6C260.4,96.5,260.1,96.4,259.8,96.4z"/>
	<path d="M270,101c0-0.2,0-0.3-0.1-0.4c-0.1-0.1-0.199-0.199-0.3-0.3c-0.101-0.1-0.3-0.2-0.601-0.3c-0.199-0.1-0.5-0.2-0.899-0.2
		c-0.399-0.1-0.8-0.2-1.2-0.3c-0.3-0.1-0.6-0.3-0.9-0.4c-0.199-0.199-0.399-0.399-0.6-0.6c-0.1-0.2-0.199-0.5-0.199-0.8
		s0.1-0.601,0.199-0.8c0.1-0.301,0.301-0.5,0.6-0.7c0.301-0.2,0.601-0.4,0.9-0.5c0.4-0.101,0.7-0.2,1.2-0.2s0.899,0.1,1.2,0.2
		c0.3,0.1,0.699,0.3,0.9,0.5c0.199,0.2,0.5,0.5,0.6,0.7C270.9,97.2,271,97.5,271,97.8h-1.299c0-0.2,0-0.3-0.101-0.5
		s-0.2-0.3-0.3-0.399c-0.1-0.101-0.301-0.2-0.5-0.301c-0.2-0.1-0.4-0.1-0.7-0.1s-0.5,0-0.7,0.1c-0.199,0.101-0.4,0.101-0.5,0.2
		c-0.1,0.101-0.199,0.2-0.3,0.3C266.5,97.2,266.5,97.4,266.5,97.5s0,0.3,0.101,0.4c0.101,0.1,0.101,0.199,0.3,0.3
		c0.1,0.1,0.301,0.2,0.5,0.2c0.2,0.1,0.5,0.1,0.9,0.199c0.5,0.101,0.9,0.2,1.199,0.301c0.4,0.1,0.701,0.3,0.9,0.5
		c0.2,0.199,0.4,0.399,0.6,0.6c0.101,0.2,0.201,0.5,0.201,0.8S271.1,101.4,271,101.7c-0.1,0.3-0.399,0.5-0.6,0.7
		c-0.199,0.199-0.6,0.3-1,0.399c-0.4,0.101-0.8,0.2-1.199,0.2c-0.5,0-0.9-0.1-1.301-0.2c-0.4-0.1-0.699-0.3-1-0.5
		c-0.3-0.2-0.5-0.5-0.6-0.8s-0.2-0.6-0.2-0.9h1.3c0,0.301,0.1,0.5,0.2,0.7s0.3,0.3,0.5,0.4c0.2,0.1,0.399,0.2,0.601,0.2
		c0.199,0,0.399,0.1,0.6,0.1c0.5,0,1-0.1,1.3-0.3S270,101.3,270,101z"/>
	<path d="M283,100.3l0.201,1.101l0.199-1.101l1.2-4.7h0.8l1.2,4.7l0.2,1.2l0.199-1.2l0.801-4.7h1.1l-1.6,7.4h-1l-1.2-4.5l-0.2-1.1
		l-0.199,1.1L283.6,103h-1L281,95.6h1.101L283,100.3z"/>
	<path d="M290.5,95.5h3.801v6.3h2.4v1.101H290.5V101.8h2.5v-5.2h-2.5V95.5L290.5,95.5z M292.8,93.6c0-0.199,0.1-0.399,0.199-0.5
		C293.1,93,293.3,92.9,293.6,92.9S294,93,294.201,93.1c0.1,0.101,0.199,0.301,0.199,0.5c0,0.2-0.1,0.4-0.199,0.5
		c-0.101,0.101-0.301,0.2-0.601,0.2s-0.399-0.1-0.601-0.2C292.9,94,292.8,93.8,292.8,93.6z"/>
	<path d="M301.701,93.7v1.8h2.799v1h-2.799v4c0,0.3,0,0.5,0.1,0.7s0.199,0.3,0.3,0.399c0.101,0.101,0.3,0.2,0.399,0.2
		c0.201,0,0.301,0.101,0.5,0.101c0.101,0,0.301,0,0.4,0s0.301,0,0.4-0.101c0.1,0,0.3,0,0.4-0.1c0.1,0,0.199,0,0.299-0.101l0.201,0.9
		c-0.101,0.1-0.201,0.1-0.4,0.2c-0.2,0-0.301,0.1-0.5,0.1c-0.2,0-0.4,0.101-0.6,0.101c-0.201,0-0.4,0-0.601,0
		c-0.3,0-0.601,0-0.899-0.101c-0.301-0.1-0.5-0.2-0.701-0.399c-0.199-0.2-0.399-0.5-0.5-0.801c-0.1-0.3-0.199-0.699-0.199-1.199v-4
		h-1.9v-1h1.9V93.6h1.4V93.7z"/>
	<path d="M308.4,96.6c0.301-0.399,0.6-0.699,1-0.899s0.801-0.3,1.301-0.3c0.398,0,0.699,0.1,1.1,0.199
		c0.299,0.101,0.6,0.301,0.799,0.5c0.201,0.2,0.4,0.5,0.5,0.9c0.102,0.4,0.201,0.8,0.201,1.3v4.7H312v-4.7c0-0.6-0.1-1.1-0.4-1.399
		c-0.299-0.301-0.699-0.4-1.199-0.4c-0.4,0-0.801,0.1-1.1,0.3c-0.301,0.2-0.6,0.5-0.801,0.8v5.4h-1.299V92.4h1.299V96.6H308.4z"/>
	<path d="M315.701,95.5h3.799v6.3h2.4v1.101h-6.199V101.8h2.5v-5.2h-2.5V95.5L315.701,95.5z M318.099,93.6
		c0-0.199,0.102-0.399,0.201-0.5c0.1-0.1,0.299-0.199,0.6-0.199s0.4,0.1,0.6,0.199c0.1,0.101,0.201,0.301,0.201,0.5
		c0,0.2-0.102,0.4-0.201,0.5c-0.1,0.101-0.299,0.2-0.6,0.2s-0.4-0.1-0.6-0.2C318.099,94,318.099,93.8,318.099,93.6z"/>
	<path d="M325,95.5l0.1,1.1c0.301-0.399,0.602-0.699,1-0.899c0.4-0.2,0.801-0.3,1.301-0.3c0.4,0,0.699,0.1,1.1,0.199
		c0.301,0.101,0.6,0.301,0.801,0.5c0.199,0.2,0.4,0.5,0.5,0.9S330,97.8,330,98.3v4.7h-1.299v-4.7c0-0.3,0-0.6-0.102-0.8
		c-0.1-0.2-0.199-0.4-0.299-0.6c-0.1-0.101-0.301-0.2-0.5-0.301c-0.201-0.1-0.4-0.1-0.701-0.1c-0.398,0-0.799,0.1-1.1,0.3
		c-0.299,0.2-0.6,0.5-0.799,0.8v5.301H323.9v-7.4H325z"/>
	<path d="M231.1,114.1c0-0.5,0.101-1,0.2-1.5c0.199-0.5,0.4-0.899,0.699-1.199c0.301-0.301,0.601-0.601,1.101-0.801
		c0.399-0.199,0.899-0.3,1.399-0.3s1,0.101,1.4,0.3c0.4,0.2,0.801,0.5,1.1,0.801c0.301,0.3,0.5,0.699,0.701,1.199
		c0.199,0.5,0.199,1,0.199,1.5v0.2c0,0.5-0.1,1-0.199,1.5c-0.101,0.5-0.4,0.9-0.701,1.2c-0.299,0.3-0.6,0.6-1.1,0.8
		s-0.9,0.3-1.4,0.3s-1-0.1-1.399-0.3s-0.8-0.5-1.101-0.8c-0.299-0.3-0.5-0.7-0.699-1.2c-0.2-0.5-0.2-1-0.2-1.5V114.1z M232.4,114.2
		c0,0.399,0,0.7,0.1,1c0.101,0.3,0.201,0.6,0.4,0.899c0.2,0.301,0.4,0.4,0.7,0.601s0.601,0.2,0.899,0.2c0.301,0,0.701-0.101,0.9-0.2
		c0.301-0.101,0.5-0.3,0.7-0.601c0.2-0.3,0.3-0.5,0.399-0.899c0.101-0.3,0.101-0.7,0.101-1V114c0-0.4,0-0.7-0.101-1
		c-0.1-0.3-0.199-0.6-0.399-0.9c-0.2-0.3-0.399-0.5-0.7-0.6c-0.3-0.1-0.6-0.2-0.9-0.2c-0.299,0-0.699,0.101-0.899,0.2
		c-0.3,0.1-0.5,0.3-0.7,0.6c-0.199,0.301-0.3,0.5-0.4,0.9c-0.1,0.3-0.1,0.7-0.1,1V114.2z"/>
	<path d="M243,117c0.201,0,0.5,0,0.701-0.1c0.199-0.101,0.399-0.2,0.6-0.301c0.199-0.1,0.3-0.3,0.4-0.5
		c0.1-0.199,0.199-0.399,0.199-0.6h1.2c0,0.3-0.101,0.6-0.3,0.9c-0.2,0.3-0.4,0.6-0.7,0.8s-0.601,0.399-1,0.5
		c-0.399,0.1-0.7,0.2-1.101,0.2c-0.6,0-1.1-0.101-1.5-0.301c-0.399-0.199-0.799-0.5-1-0.8c-0.299-0.3-0.5-0.7-0.6-1.2
		c-0.1-0.399-0.199-0.899-0.199-1.399V114c0-0.5,0.1-1,0.199-1.4c0.1-0.399,0.4-0.8,0.6-1.199c0.301-0.301,0.601-0.601,1-0.801
		c0.4-0.199,0.9-0.3,1.5-0.3c0.4,0,0.801,0.101,1.201,0.2c0.399,0.1,0.699,0.3,1,0.6c0.299,0.2,0.5,0.5,0.6,0.9s0.199,0.7,0.199,1.1
		H244.8c0-0.199-0.1-0.399-0.1-0.6c-0.101-0.2-0.201-0.4-0.4-0.5c-0.2-0.1-0.301-0.3-0.6-0.4c-0.201-0.1-0.5-0.1-0.701-0.1
		c-0.399,0-0.699,0.1-1,0.2c-0.299,0.2-0.5,0.399-0.6,0.6c-0.199,0.3-0.3,0.5-0.4,0.9c-0.1,0.3-0.1,0.6-0.1,1v0.3c0,0.3,0,0.6,0.1,1
		c0.101,0.3,0.201,0.6,0.301,0.9c0.199,0.3,0.4,0.5,0.6,0.6C242.3,116.9,242.6,117,243,117z"/>
	<path d="M251.4,117c0.2,0,0.5,0,0.7-0.1c0.2-0.101,0.399-0.2,0.601-0.301c0.199-0.1,0.299-0.3,0.399-0.5
		c0.101-0.199,0.2-0.399,0.2-0.6h1.199c0,0.3-0.1,0.6-0.299,0.9c-0.201,0.3-0.4,0.6-0.701,0.8c-0.299,0.2-0.6,0.399-1,0.5
		c-0.399,0.1-0.699,0.2-1.1,0.2c-0.6,0-1.1-0.101-1.5-0.301c-0.4-0.199-0.8-0.5-1-0.8c-0.3-0.3-0.5-0.7-0.6-1.2
		c-0.1-0.399-0.2-0.899-0.2-1.399V114c0-0.5,0.101-1,0.2-1.4c0.1-0.399,0.4-0.8,0.6-1.199c0.301-0.301,0.6-0.601,1-0.801
		c0.4-0.199,0.9-0.3,1.5-0.3c0.4,0,0.801,0.101,1.2,0.2s0.7,0.3,1,0.6c0.3,0.2,0.5,0.5,0.601,0.9c0.1,0.4,0.199,0.7,0.199,1.1
		h-1.199c0-0.199-0.101-0.399-0.101-0.6c-0.101-0.2-0.2-0.4-0.399-0.5c-0.201-0.1-0.301-0.3-0.601-0.4c-0.2-0.1-0.5-0.1-0.7-0.1
		c-0.4,0-0.699,0.1-1,0.2c-0.3,0.2-0.5,0.399-0.6,0.6c-0.2,0.3-0.301,0.5-0.4,0.9c-0.1,0.3-0.1,0.6-0.1,1v0.3c0,0.3,0,0.6,0.1,1
		c0.1,0.3,0.2,0.6,0.301,0.9c0.199,0.3,0.399,0.5,0.6,0.6C250.701,116.9,251,117,251.4,117z"/>
	<path d="M261.5,116.8c-0.199,0.4-0.6,0.601-0.899,0.9c-0.399,0.2-0.8,0.3-1.3,0.3c-0.4,0-0.7-0.1-1.1-0.2
		c-0.301-0.1-0.601-0.3-0.801-0.6c-0.199-0.3-0.4-0.601-0.5-1c-0.1-0.4-0.199-0.9-0.199-1.4V110.4H258v4.399c0,0.4,0,0.7,0.101,1
		s0.2,0.5,0.3,0.601c0.1,0.199,0.301,0.3,0.5,0.3c0.2,0.1,0.4,0.1,0.6,0.1c0.5,0,0.9-0.1,1.201-0.3c0.299-0.2,0.6-0.5,0.699-0.8
		v-5.3h1.301v7.399H261.6L261.5,116.8z"/>
	<path d="M271.3,114.2c0,0.5-0.1,1-0.2,1.5s-0.3,0.899-0.601,1.2c-0.299,0.3-0.5,0.6-0.899,0.8s-0.8,0.3-1.2,0.3
		c-0.5,0-0.8-0.1-1.199-0.2c-0.301-0.1-0.601-0.399-0.9-0.6v3.6H265v-10.2h1.201l0.1,0.801c0.199-0.301,0.5-0.5,0.9-0.7
		c0.299-0.2,0.799-0.2,1.199-0.2c0.5,0,0.9,0.1,1.301,0.3c0.399,0.2,0.699,0.4,0.899,0.8c0.2,0.4,0.399,0.7,0.601,1.2
		c0.1,0.5,0.199,1,0.199,1.5v-0.1H271.3z M270.1,114.1c0-0.399,0-0.699-0.101-1c-0.1-0.3-0.199-0.6-0.399-0.899
		c-0.2-0.2-0.399-0.4-0.601-0.601c-0.199-0.199-0.6-0.199-0.899-0.199c-0.399,0-0.7,0.1-1,0.3s-0.5,0.399-0.7,0.7v3.6
		c0.2,0.3,0.4,0.5,0.7,0.7s0.601,0.3,1,0.3s0.7-0.1,0.899-0.2c0.301-0.1,0.5-0.3,0.601-0.6s0.3-0.5,0.399-0.9
		c0.101-0.3,0.101-0.7,0.101-1V114.1z"/>
	<path d="M278.4,117.9c0-0.101-0.1-0.2-0.1-0.4c0-0.1-0.1-0.3-0.1-0.4c-0.101,0.101-0.301,0.2-0.4,0.4c-0.2,0.1-0.301,0.2-0.5,0.3
		c-0.2,0.101-0.4,0.2-0.6,0.2c-0.201,0-0.4,0.1-0.701,0.1c-0.399,0-0.699-0.1-1.1-0.199c-0.3-0.101-0.6-0.301-0.8-0.5
		c-0.2-0.2-0.399-0.4-0.5-0.7s-0.2-0.601-0.2-0.9c0-0.399,0.1-0.8,0.2-1.1c0.2-0.3,0.399-0.601,0.7-0.8c0.3-0.2,0.699-0.4,1.1-0.5
		c0.4-0.101,0.9-0.2,1.4-0.2h1.4V112.6c0-0.199,0-0.399-0.101-0.6s-0.2-0.3-0.3-0.5c-0.2-0.1-0.301-0.2-0.6-0.3
		c-0.201-0.101-0.5-0.101-0.701-0.101c-0.299,0-0.5,0-0.699,0.101c-0.2,0.1-0.4,0.1-0.5,0.3s-0.2,0.2-0.301,0.4
		c-0.1,0.1-0.1,0.3-0.1,0.399h-1.3c0-0.3,0.101-0.5,0.2-0.8s0.3-0.5,0.6-0.7c0.301-0.2,0.6-0.399,0.9-0.5c0.4-0.1,0.8-0.2,1.199-0.2
		c0.4,0,0.801,0.101,1.201,0.2c0.399,0.101,0.699,0.3,0.899,0.5c0.3,0.2,0.5,0.5,0.601,0.8c0.1,0.301,0.199,0.7,0.199,1.101v3.399
		c0,0.2,0,0.5,0.1,0.801c0,0.3,0.101,0.5,0.201,0.699v0.101H278.4V117.9z M276.1,116.9c0.2,0,0.5,0,0.7-0.101
		c0.199-0.1,0.4-0.1,0.6-0.3c0.2-0.1,0.301-0.2,0.5-0.4c0.1-0.1,0.2-0.3,0.301-0.399v-1.5H277c-0.699,0-1.299,0.1-1.699,0.3
		s-0.6,0.6-0.6,1c0,0.2,0,0.4,0.1,0.5c0.1,0.2,0.199,0.3,0.3,0.4c0.101,0.1,0.3,0.199,0.5,0.3C275.8,116.8,275.9,116.9,276.1,116.9z
		"/>
	<path d="M284.9,108.7v1.8h2.801v1H284.9v4c0,0.3,0,0.5,0.1,0.7c0.101,0.2,0.201,0.3,0.301,0.399c0.1,0.101,0.3,0.2,0.4,0.2
		c0.199,0,0.299,0.101,0.5,0.101c0.1,0,0.299,0,0.399,0s0.3,0,0.399-0.101c0.101,0,0.301,0,0.4-0.1c0.1,0,0.2,0,0.301-0.101
		l0.199,0.9c-0.1,0.1-0.199,0.1-0.4,0.2c-0.199,0-0.299,0.1-0.5,0.1c-0.199,0-0.399,0.101-0.6,0.101c-0.199,0-0.4,0-0.6,0
		c-0.301,0-0.6,0-0.9-0.101c-0.3-0.1-0.5-0.2-0.699-0.399c-0.201-0.2-0.4-0.5-0.5-0.801c-0.101-0.3-0.201-0.699-0.201-1.199v-4
		H281.6v-1h1.899V108.6h1.4V108.7z"/>
	<path d="M290.5,110.5h3.801v6.3h2.4v1.101H290.5V116.8h2.5v-5.2h-2.5V110.5L290.5,110.5z M292.8,108.5c0-0.2,0.1-0.4,0.199-0.5
		c0.101-0.1,0.301-0.2,0.601-0.2s0.399,0.101,0.601,0.2c0.1,0.1,0.199,0.3,0.199,0.5s-0.1,0.4-0.199,0.5
		c-0.101,0.1-0.301,0.2-0.601,0.2S293.201,109.1,293,109C292.9,108.9,292.8,108.7,292.8,108.5z"/>
	<path d="M298.3,114.1c0-0.5,0.1-1,0.199-1.5c0.201-0.5,0.4-0.899,0.701-1.199c0.299-0.301,0.6-0.601,1.1-0.801
		c0.4-0.199,0.9-0.3,1.4-0.3s1,0.101,1.399,0.3c0.399,0.2,0.8,0.5,1.101,0.801c0.299,0.3,0.5,0.699,0.699,1.199
		c0.2,0.5,0.2,1,0.2,1.5v0.2c0,0.5-0.101,1-0.2,1.5s-0.4,0.9-0.699,1.2c-0.301,0.3-0.601,0.6-1.101,0.8s-0.899,0.3-1.399,0.3
		s-1-0.1-1.4-0.3s-0.801-0.5-1.1-0.8c-0.301-0.3-0.5-0.7-0.701-1.2c-0.199-0.5-0.199-1-0.199-1.5V114.1z M299.6,114.2
		c0,0.399,0,0.7,0.101,1c0.1,0.3,0.199,0.6,0.399,0.899c0.2,0.301,0.399,0.4,0.7,0.601c0.3,0.2,0.6,0.2,0.9,0.2
		c0.299,0,0.699-0.101,0.899-0.2c0.3-0.101,0.5-0.3,0.7-0.601c0.199-0.3,0.3-0.5,0.4-0.899c0.1-0.3,0.1-0.7,0.1-1V114
		c0-0.4,0-0.7-0.1-1c-0.101-0.3-0.201-0.6-0.4-0.9c-0.2-0.3-0.4-0.5-0.7-0.6s-0.601-0.2-0.899-0.2c-0.301,0-0.701,0.101-0.9,0.2
		c-0.301,0.1-0.5,0.3-0.7,0.6c-0.2,0.301-0.3,0.5-0.399,0.9c-0.101,0.3-0.101,0.7-0.101,1V114.2z"/>
	<path d="M308.201,110.5l0.1,1.1c0.299-0.399,0.6-0.699,1-0.899s0.799-0.3,1.299-0.3c0.4,0,0.701,0.1,1.102,0.199
		c0.299,0.101,0.6,0.301,0.799,0.5c0.201,0.2,0.4,0.5,0.5,0.9s0.201,0.8,0.201,1.3v4.7H311.9v-4.7c0-0.3,0-0.6-0.1-0.8
		s-0.201-0.4-0.301-0.6c-0.1-0.101-0.299-0.2-0.5-0.301c-0.199-0.1-0.4-0.1-0.699-0.1c-0.4,0-0.801,0.1-1.1,0.3
		c-0.301,0.2-0.602,0.5-0.801,0.8v5.301h-1.301v-7.4H308.201z"/>
</g>
</svg>
